<?xml version="1.0" standalone="no"?>
<!DOCTYPE svg PUBLIC "-//W3C//DTD SVG 1.1//EN" "http://www.w3.org/Graphics/SVG/1.1/DTD/svg11.dtd" >
<svg xmlns="http://www.w3.org/2000/svg">
<metadata></metadata>
<defs>
<font id="xenia_extendedcyrillic" horiz-adv-x="764" >
<font-face units-per-em="2048" ascent="1638" descent="-410" />
<missing-glyph horiz-adv-x="719" />
<glyph unicode="&#xd;" horiz-adv-x="0" />
<glyph unicode=" "  horiz-adv-x="719" />
<glyph unicode="&#x09;" horiz-adv-x="719" />
<glyph unicode="&#xa0;" horiz-adv-x="719" />
<glyph unicode="!" horiz-adv-x="881" d="M252 555l-105 770q-4 28 -4 43q0 45 35 69.5t131 24.5h262q168 0 168 -90q0 -11 -6 -47l-104 -770h-377zM199 215q0 56 30.5 113t85.5 92t123 35q67 0 123 -35t86.5 -92t30.5 -113t-30.5 -113t-86.5 -92t-123 -35q-57 0 -113 30.5t-91 86t-35 123.5z" />
<glyph unicode="&#x22;" horiz-adv-x="973" d="M436 1434l-82 -422h-153l-82 422h317zM854 1434l-82 -422h-151l-82 422h315z" />
<glyph unicode="#" horiz-adv-x="1931" d="M918 1561l-64 -363h367l63 363h258l-63 -363h333l-40 -246h-326l-72 -399h326l-47 -272h-316l-61 -353h-258l61 353h-366l-60 -353h-258l62 353h-338l49 272l326 -2l69 401h-325l43 246h315l66 363h256zM1188 952h-369l-69 -399h368z" />
<glyph unicode="$" horiz-adv-x="1694" d="M1001 -283h-266v248q-197 1 -321 47.5t-188 117t-84.5 139.5t-22.5 137h538q7 -75 32.5 -111.5t58.5 -45.5t88 -9q194 0 194 104q0 34 -28 61t-65 43t-98 36.5t-89 29.5q-78 27 -199 69.5t-206 94.5t-136 131.5t-51 191.5q0 145 78 251t210.5 160t288.5 54v201h266v-203 q281 -12 424.5 -116t143.5 -322h-535q0 109 -49 137.5t-129 30.5q-71 0 -113.5 -14.5t-42.5 -67.5q0 -52 36 -86.5t97 -58t158 -48.5t121 -32q144 -44 239.5 -90t159.5 -128.5t64 -209.5q0 -52 -17.5 -121.5t-73.5 -146t-174.5 -138.5t-308.5 -82v-254z" />
<glyph unicode="%" horiz-adv-x="2267" d="M696 -336l-225 137l1020 1735l225 -137zM119 1073q0 148 88.5 275t337.5 127q173 0 266.5 -68t124.5 -158t31 -176q0 -89 -30.5 -178.5t-124.5 -156t-267 -66.5q-248 0 -337 125t-89 276zM543 1286q-32 0 -56 -21.5t-24 -56.5v-270q0 -32 24 -55t56 -23q35 0 57.5 23.5 t22.5 54.5v270q0 34 -23 56t-57 22zM1300 295q0 148 90 274.5t336 126.5q173 0 267 -68t124.5 -157.5t30.5 -175.5q0 -89 -30.5 -178.5t-124.5 -156t-267 -66.5q-247 0 -336.5 125t-89.5 276zM1724 508q-32 0 -55.5 -22t-23.5 -56v-270q0 -31 23.5 -54.5t55.5 -23.5 q34 0 57 23t23 55v270q0 35 -23.5 56.5t-56.5 21.5z" />
<glyph unicode="&#x26;" horiz-adv-x="2038" d="M1720 262l174 -143q-49 -92 -128.5 -123t-168.5 -31q-68 0 -137.5 14.5t-136 42.5t-111.5 62q-104 -63 -211 -91t-243 -28q-226 0 -364.5 62.5t-194.5 158t-56 203.5q0 74 33.5 157.5t122.5 161.5t246 126q-56 61 -88.5 134.5t-32.5 135.5q0 91 59.5 175.5t182 137.5 t303.5 53q251 0 325 -101t74 -204q0 -106 -83 -187t-226 -153v-16q32 -61 86 -141q33 -47 51 -78q64 -95 117 -150h14q109 126 109 156q0 22 -60 22h-51v246h549l2 -262h-39q-36 0 -90 -46.5t-131 -129.5q-85 -93 -154 -150q58 -86 125 -86q92 0 133 72zM1022 244 q-87 70 -177 171t-159 208q-92 -87 -92 -215q0 -102 70.5 -163t183.5 -61q74 0 174 60zM909 1012h23q127 85 127 184q0 58 -31.5 87.5t-73.5 29.5q-54 0 -97.5 -34t-43.5 -101q0 -87 96 -166z" />
<glyph unicode="'" horiz-adv-x="555" d="M436 1434l-82 -422h-153l-82 422h317z" />
<glyph unicode="(" horiz-adv-x="1130" d="M940 -268l-242 -238q-185 115 -315 279.5t-197 353t-67 371.5q0 93 24 208t88 250t181.5 270t285.5 244l242 -237q-154 -161 -236.5 -359t-85.5 -393q1 -127 38 -258.5t107.5 -255t176.5 -235.5z" />
<glyph unicode=")" horiz-adv-x="1128" d="M430 -506l-240 238q70 74 125.5 155t101.5 183t69.5 204.5t23.5 206.5q0 136 -43 275t-115 260.5t-162 216.5l240 237q118 -74 223 -175.5t184.5 -224t126 -270t46.5 -302.5q0 -159 -44.5 -308t-123 -279t-185 -236.5t-227.5 -180.5z" />
<glyph unicode="*" horiz-adv-x="1075" d="M453 958l-15 64l-71 22q-17 -27 -34 -44t-52 -17q-67 0 -114.5 27t-47.5 80q0 66 29 114.5t75 48.5q65 0 114.5 -37t49.5 -108l70 -25l49 39v74q-45 10 -75 48.5t-30 86.5q0 54 39.5 96.5t98.5 42.5q60 0 97.5 -41.5t37.5 -97.5q0 -48 -29.5 -86.5t-75.5 -48.5v-74 l49 -39l70 25q0 79 49 112t115 33q47 0 75.5 -47.5t28.5 -115.5q0 -53 -46.5 -80t-114.5 -27q-36 0 -52.5 16.5t-33.5 44.5l-68 -22l-18 -64l41 -57q27 12 55 12q53 0 91 -37t38 -88q0 -41 -15.5 -76.5t-43.5 -56t-60 -20.5q-57 0 -103 34t-46 91q0 64 30 102l-37 62h-65 l-43 -62q31 -44 31 -102t-46.5 -91.5t-103.5 -33.5q-54 0 -87.5 48t-33.5 105q0 51 39.5 88t91.5 37q27 0 56 -12z" />
<glyph unicode="+" horiz-adv-x="1300" d="M782 168h-264v399h-399v262h399v400h264v-400h400v-262h-400v-399z" />
<glyph unicode="," d="M346 -31v11q-101 9 -164 83t-63 164q0 62 32 120t89.5 94t128.5 36q73 0 136 -36.5t101.5 -111.5t38.5 -186q0 -155 -85 -301t-236 -301l-170 125q135 180 192 303z" />
<glyph unicode="-" horiz-adv-x="1098" d="M119 412v311h860v-311h-860z" />
<glyph unicode="." d="M119 240q0 64 33.5 125t94.5 99t136 38q67 0 127 -33t97.5 -92.5t37.5 -136.5q0 -106 -73 -185.5t-189 -79.5q-114 0 -189 80.5t-75 184.5z" />
<glyph unicode="/" horiz-adv-x="1323" d="M381 -473l-262 141l823 1802l262 -143z" />
<glyph unicode="0" horiz-adv-x="1511" d="M756 1470q141 0 292.5 -54t266.5 -208q153 -203 153 -491q0 -130 -25.5 -231.5t-57 -164.5t-60.5 -104q-67 -92 -207.5 -172t-361.5 -80q-109 0 -216 27t-199.5 84.5t-154.5 140.5q-71 96 -107 228t-36 272q0 290 154 491q115 154 266.5 208t292.5 54zM756 1159 q-55 0 -88.5 -36t-48.5 -95t-19 -118.5t-4 -149.5v-139q0 -158 28.5 -251.5t131.5 -93.5q102 0 130.5 93.5t28.5 251.5v139q0 85 -4.5 155t-21 125.5t-48.5 87t-85 31.5z" />
<glyph unicode="1" horiz-adv-x="1063" d="M145 0v262h80q53 0 69.5 15.5t16.5 66.5v510h-192v262q131 58 223 132t160 186h311v-1090q0 -44 13.5 -63t70.5 -19h70v-262h-822z" />
<glyph unicode="2" horiz-adv-x="1454" d="M1339 0h-1278v297q300 144 533 325t233 392q0 74 -36 109.5t-91 35.5q-82 0 -111 -59.5t-40 -177.5h-481q6 121 63 244t211 213.5t424 90.5q124 0 235.5 -28t198.5 -83t138 -136t51 -183q0 -126 -68 -240.5t-178 -208t-239 -162t-259 -110.5v-8h338q55 0 79.5 5.5 t40.5 26t40 67.5h264z" />
<glyph unicode="3" horiz-adv-x="1456" d="M649 598h-121v311h148q176 0 176 133q0 69 -45.5 93t-93.5 24q-55 0 -100.5 -37.5t-53.5 -115.5h-469q6 79 35.5 155.5t102 147.5t202 116t322.5 45q167 0 303 -44.5t214.5 -130t78.5 -201.5q0 -129 -86 -212t-213 -104v-10q342 -56 342 -379q0 -79 -30.5 -152.5 t-104.5 -136t-197 -99t-303 -36.5q-195 0 -332.5 47t-215.5 123.5t-110 164t-32 173.5h460q0 -116 56.5 -156.5t117.5 -40.5q54 0 100.5 31t51.5 111v37q-6 83 -69 113t-134 30z" />
<glyph unicode="4" horiz-adv-x="1470" d="M580 0v262h67q43 0 65.5 14.5t22.5 55.5q0 5 -4 35h-694v280l870 787h328v-805h164v-262h-164v-37q0 -33 15 -50.5t69 -17.5h70v-262h-809zM770 928l-330 -299h330v299z" />
<glyph unicode="5" horiz-adv-x="1456" d="M639 1122l-14 -180q86 8 155 8q312 0 461.5 -128t149.5 -333q0 -147 -72.5 -265.5t-216.5 -188.5t-352 -70q-254 0 -407 68.5t-216 177.5t-68 242h461q4 -64 44.5 -120.5t123.5 -56.5q67 0 112 44t52 120v66q-7 72 -48 112.5t-118.5 56t-202.5 15.5q-64 0 -144 -4.5 t-159 -13.5l60 762h1007v-248q-43 -43 -107.5 -68.5t-174.5 -25.5q-127 0 -326 30z" />
<glyph unicode="6" horiz-adv-x="1466" d="M1376 1024h-469q-11 57 -53 96t-102 39q-92 0 -131 -69t-39 -201v-39q52 23 126 40t171 17q156 0 274 -54.5t182 -155t64 -232.5q0 -157 -86 -271t-231 -171.5t-318 -57.5q-213 0 -369 73.5t-241.5 229t-85.5 391.5q0 148 28 288t103 259.5t212.5 191.5t348.5 72 q130 0 234 -27.5t179.5 -81t127 -138t75.5 -199.5zM752 252q52 0 84.5 18t47.5 63t15 124q0 95 -31.5 138.5t-115.5 43.5q-83 0 -114.5 -43t-31.5 -139q0 -118 34 -161.5t112 -43.5z" />
<glyph unicode="7" horiz-adv-x="1247" d="M94 1434h1178v-275q-127 -165 -207.5 -281t-146 -247t-101 -272.5t-35.5 -305.5v-53h-592q6 101 38 208t84 218t102 192q58 93 99.5 150.5t90 115t114 125.5t111.5 113h-325q-87 0 -122.5 -35t-47.5 -133h-262z" />
<glyph unicode="8" horiz-adv-x="1462" d="M1055 762v-10q83 -15 160.5 -53.5t129.5 -106t52 -162.5q0 -124 -55 -226.5t-203.5 -170.5t-407.5 -68q-257 0 -406 67.5t-204 170.5t-55 227q0 137 104.5 217.5t237.5 104.5v10q-99 25 -200.5 101.5t-101.5 230.5q0 109 73.5 194.5t216 133.5t335.5 48t335.5 -48 t216 -133.5t73.5 -194.5q0 -154 -101 -230t-200 -102zM731 1202q-52 0 -96.5 -31.5t-44.5 -119.5q0 -54 29 -104t112 -50t112 49t29 105q0 88 -44.5 119.5t-96.5 31.5zM731 248q73 0 109.5 38t36.5 144q0 180 -146 180q-145 0 -145 -180q0 -106 36.5 -144t108.5 -38z" />
<glyph unicode="9" horiz-adv-x="1466" d="M90 416h469q13 -59 55 -99.5t99 -40.5q97 0 134.5 72t37.5 197v39q-136 -58 -297 -58q-155 0 -272.5 54.5t-182.5 155.5t-65 233q0 135 58.5 232t153 156t206.5 86t216 27q114 0 227.5 -23.5t221.5 -95t178 -213.5t70 -364q0 -339 -117.5 -520t-270 -235t-304.5 -54 q-166 0 -282 43.5t-185.5 113t-102.5 144t-47 150.5zM713 1184q-95 0 -120.5 -58t-25.5 -149q0 -80 27 -131t119 -51q82 0 114.5 41t32.5 141q0 107 -30 157t-117 50z" />
<glyph unicode=":" d="M119 240q0 102 74 182t190 80q78 0 137.5 -37.5t92 -97.5t32.5 -127q0 -106 -73 -185.5t-189 -79.5q-76 0 -137 38t-94 98.5t-33 128.5zM119 870q0 102 74 182.5t190 80.5t189 -79.5t73 -183.5t-73 -184t-189 -80t-190 82.5t-74 181.5z" />
<glyph unicode=";" horiz-adv-x="778" d="M119 870q0 102 74 182.5t190 80.5t189 -79.5t73 -183.5t-73 -184t-189 -80t-190 82.5t-74 181.5zM360 -31v11q-69 6 -121.5 43t-79 92t-26.5 112q0 111 75.5 180.5t174.5 69.5q73 0 136 -37t101.5 -112t38.5 -185q0 -125 -75 -276.5t-248 -325.5l-170 125q43 58 79 108 t61.5 92.5t53.5 102.5z" />
<glyph unicode="&#x3c;" horiz-adv-x="1489" d="M1370 1096l-696 -404v-12l696 -401l-131 -238l-1120 645l1120 649z" />
<glyph unicode="=" horiz-adv-x="1325" d="M119 760v262h1087v-262h-1087zM119 616h1087v-262h-1087v262z" />
<glyph unicode="&#x3e;" horiz-adv-x="1573" d="M203 1096l131 239l1120 -649l-1118 -645l-133 238l696 401v12z" />
<glyph unicode="?" horiz-adv-x="1538" d="M555 922h-412q7 106 40 202t104 174t194 125t297 47q235 0 426 -99.5t191 -315.5q0 -120 -46 -194t-105 -108.5t-126 -56.5q-94 -31 -132 -57.5t-52 -83.5h-379q0 138 37 197.5t117 113.5q66 47 106.5 101t40.5 127q0 53 -39 79.5t-86 26.5q-67 0 -104.5 -32.5t-53 -94.5 t-18.5 -151zM522 215q0 59 30 114.5t86 90.5t124 35q59 0 114.5 -30.5t89 -85.5t33.5 -124q0 -103 -71.5 -171.5t-165.5 -68.5q-68 0 -124 35t-86 90.5t-30 114.5z" />
<glyph unicode="@" horiz-adv-x="2159" d="M1616 1104l-141 -475q-31 -101 -31 -164q0 -37 25 -78t106 -41q93 0 156 66t92.5 162t29.5 188q0 145 -54 272t-155.5 225.5t-243.5 153.5t-310 55q-157 0 -297 -52t-247 -151.5t-168 -247t-61 -327.5q0 -200 68.5 -350t180 -245t244.5 -140t257 -45q281 0 465 149 l84 -153q-97 -74 -194.5 -115.5t-180 -56.5t-162.5 -15q-197 0 -372.5 69.5t-308 198t-206 304.5t-73.5 379q0 201 70 380t197.5 310t309 205.5t394.5 74.5q211 0 387 -68.5t302 -189.5t193.5 -281t67.5 -343q0 -156 -60 -283t-174 -199.5t-272 -72.5q-199 0 -279 143h-16 q-90 -82 -170 -112.5t-166 -30.5q-43 0 -124.5 23t-158.5 108.5t-77 253.5q0 148 61 284t175.5 220t260.5 84q124 0 193.5 -52t97.5 -104h19l30 84h236zM1184 475l108 399q-10 64 -50 105t-103 41q-92 0 -169 -64t-121 -168t-44 -217q0 -105 46.5 -165t127.5 -60 q69 0 120.5 37.5t84.5 91.5z" />
<glyph unicode="A" horiz-adv-x="1663" d="M309 1434h856l340 -1049q16 -51 26.5 -72.5t33 -36t63.5 -14.5h35v-262h-764v262h59q64 0 64 33q0 20 -16 57h-498l-6 -24q2 -16 15.5 -41t47.5 -25h25v-262h-590v262h37q67 0 91.5 26t51.5 101l252 686q4 12 6 21q3 6 4 8.5t2 5.5q9 14 9 31q0 30 -56 30h-88v263z M764 1063l-148 -399h289l-129 399h-12z" />
<glyph unicode="B" horiz-adv-x="1614" d="M72 1434h661q208 0 330.5 -8.5t228 -42t165 -108.5t59.5 -204q0 -82 -44.5 -154t-123.5 -114.5t-177 -42.5h-28v-19h45q89 0 177.5 -39t145 -118.5t56.5 -194.5q0 -138 -64 -218.5t-180 -116.5t-264.5 -45t-374.5 -9h-47h-565v262h67q56 0 70 19t14 63v746 q0 44 -13.5 62.5t-70.5 18.5h-67v263zM725 868h106q96 0 126 42.5t30 88.5q0 75 -53.5 99t-147.5 24h-61v-254zM725 311h104q59 0 115.5 23t56.5 106q0 60 -30 91.5t-72.5 41t-103.5 9.5h-70v-271z" />
<glyph unicode="C" horiz-adv-x="1665" d="M1016 573h612q-2 -121 -57 -230t-160.5 -195t-255 -134.5t-332.5 -48.5q-181 0 -309 44.5t-200 100t-117 109.5q-160 197 -160 498q0 129 39.5 254t130.5 235q72 88 170 147t209.5 88t226.5 29q207 0 383.5 -78.5t280.5 -213t110 -293.5h-573q0 105 -38.5 189.5 t-150.5 84.5q-53 0 -90 -19t-64.5 -100.5t-27.5 -246.5v-146q0 -167 33.5 -269t148.5 -102q76 0 133.5 62.5t57.5 234.5z" />
<glyph unicode="D" horiz-adv-x="1720" d="M72 1434h807q136 0 262.5 -20t252.5 -90.5t207.5 -218.5t81.5 -386q0 -179 -55 -317.5t-162 -231.5q-85 -77 -190.5 -114t-217.5 -46.5t-272 -9.5h-90h-624v262h67q58 0 72 21.5t14 60.5v746q0 38 -14 59.5t-72 21.5h-67v263zM727 1040v-651q0 -52 20 -65t66 -13h68 q57 0 97 17t69.5 91t29.5 228v137q0 151 -29.5 226.5t-69 93.5t-97.5 18h-68q-57 0 -71.5 -20t-14.5 -62z" />
<glyph unicode="E" horiz-adv-x="1446" d="M72 0v262h69q56 0 70 19t14 63v746q0 44 -12.5 62.5t-69.5 18.5h-71v263h1276v-461h-263q-7 50 -16 90q-9 37 -31.5 48t-97.5 11h-213v-239h328v-312h-328v-260h201q80 0 112.5 17t49.5 58.5t20 80.5h264l-12 -467h-1290z" />
<glyph unicode="F" horiz-adv-x="1356" d="M72 0v262h69q56 0 70 19t14 63v746q0 44 -13.5 62.5t-70.5 18.5h-69v263h1284v-461h-264q-9 63 -17 90q-9 37 -31 48t-98 11h-219v-239h342v-312h-342v-217q0 -51 15.5 -71.5t70.5 -20.5h92v-262h-833z" />
<glyph unicode="G" horiz-adv-x="1686" d="M1579 0h-264l-29 109h-12q-59 -50 -124 -83.5t-134.5 -47t-159.5 -13.5q-141 0 -262 25t-223 79t-174 140q-160 190 -160 506q0 87 20.5 177.5t60 172t91.5 143.5q118 144 275.5 203t328.5 59q178 0 320.5 -36.5t241.5 -104.5t152.5 -168.5t53.5 -228.5h-516 q-4 97 -42 148.5t-82.5 65t-88.5 13.5q-54 0 -88 -11.5t-61.5 -54t-43.5 -135.5t-16 -243q0 -140 13 -224.5t40.5 -131.5t69.5 -65t106 -18q87 0 146 23t59 72v10q0 45 -16.5 63.5t-79.5 18.5h-45v262h750v-262q-60 -3 -83.5 -21.5t-23.5 -64.5v-377z" />
<glyph unicode="H" horiz-adv-x="1804" d="M72 0v262h67q51 0 68.5 17t17.5 65v746q0 48 -17 64.5t-69 16.5h-67v263h749v-263h-12q-53 0 -67.5 -22t-14.5 -59v-177h350v177q0 48 -17 64.5t-69 16.5h-12v263h754v-263h-70q-56 0 -70 -21.5t-14 -59.5v-746q0 -39 14 -60.5t70 -21.5h70v-262h-754v262h12 q51 0 68.5 17t17.5 65v258h-350v-258q0 -39 15 -60.5t71 -21.5h12v-262h-753z" />
<glyph unicode="I" horiz-adv-x="913" d="M72 0v262h59q49 0 61.5 19t12.5 63v746q0 44 -12 62.5t-62 18.5h-59v263h770v-263h-62q-44 0 -58.5 -16.5t-14.5 -64.5v-746q0 -47 15.5 -64.5t57.5 -17.5h62v-262h-770z" />
<glyph unicode="J" horiz-adv-x="967" d="M41 1434h829v-263h-67q-52 0 -66 -22t-14 -59v-603q0 -92 -12 -175.5t-54.5 -164.5t-129.5 -131.5t-222 -50.5t-200.5 14t-104.5 39v312q44 -31 70 -42.5t63 -11.5q88 0 88 119v692q0 51 -17.5 67.5t-70.5 16.5h-92v263z" />
<glyph unicode="K" horiz-adv-x="1812" d="M72 0v262h57q45 0 65.5 7.5t25.5 20.5t5 36v764q0 37 -14.5 59t-69.5 22h-69v263h774v-263h-33q-42 0 -64 -14.5t-22 -52.5v-234l268 246q8 5 20.5 21t12.5 22q0 12 -51 12h-23v263h742l2 -263h-47q-70 0 -142.5 -29t-136.5 -79t-115 -113l306 -495q114 -188 225 -193 v-262h-819v262h37q53 0 53 51q0 16 -41 84l-131 213l-160 -155v-107q0 -20 4.5 -38t23 -33t54.5 -15h16v-262h-753z" />
<glyph unicode="L" horiz-adv-x="1524" d="M96 0v262h68q50 0 68 17.5t18 64.5v746q0 47 -17.5 64t-68.5 17h-68v263h815v-263h-88q-46 0 -58.5 -12.5t-12.5 -32.5v-815h204q26 0 40 -0.5t30 -1.5q61 0 89.5 35.5t49.5 157.5h262v-502h-1331z" />
<glyph unicode="M" horiz-adv-x="2122" d="M72 1434h688l289 -562h18l268 562h715v-263h-68q-56 0 -71 -21.5t-15 -59.5v-746q0 -39 15 -60.5t71 -21.5h68v-262h-784v262h45q55 0 69.5 21.5t14.5 60.5v487h-13l-290 -608h-228l-313 608l-14 3v-490q0 -39 14 -60.5t70 -21.5h45v-262h-594v262h69q55 0 69.5 21.5 t14.5 60.5v746q0 38 -14.5 59.5t-69.5 21.5h-69v263z" />
<glyph unicode="N" horiz-adv-x="1759" d="M72 1434h600l555 -783v406q1 12 1.5 21t0.5 22q0 36 -16 53.5t-68 17.5h-66v263h609v-263h-68q-53 0 -67.5 -22t-14.5 -59v-1090h-459l-547 768v-391q1 -7 2 -16t1 -27q2 -37 15 -54.5t62 -17.5h66v-262h-606v262h67q54 0 68 22t14 60v746q0 37 -13.5 59t-68.5 22h-67 v263z" />
<glyph unicode="O" horiz-adv-x="1659" d="M829 1470q92 0 197.5 -19.5t220.5 -77.5t205 -165q25 -28 63.5 -92t72.5 -168t34 -231q0 -121 -33 -254.5t-127 -245.5q-69 -84 -172.5 -141t-223 -84t-237.5 -27t-237 27t-221.5 84.5t-171.5 140.5q-162 193 -162 500q0 128 40.5 255t131.5 236q128 153 298.5 207.5 t321.5 54.5zM829 276q113 0 150 95.5t37 275.5v137q0 115 -12.5 194.5t-53.5 130t-121 50.5q-119 0 -152.5 -102.5t-33.5 -270.5v-139q0 -114 14 -195t54.5 -128.5t117.5 -47.5z" />
<glyph unicode="P" horiz-adv-x="1544" d="M72 0v262h67q58 0 72 21.5t14 60.5v746q0 38 -14 59.5t-72 21.5h-67v263h620q196 0 345.5 -20t257 -72t166.5 -147.5t59 -244.5q0 -143 -65 -235t-162.5 -137.5t-196 -60.5t-193.5 -15l-176 2v-160q0 -39 15 -60.5t71 -21.5h92v-262h-833zM727 1124v-311 q111 0 173.5 34.5t62.5 129.5q0 88 -61.5 117.5t-174.5 29.5z" />
<glyph unicode="Q" horiz-adv-x="1655" d="M705 -35v6q-152 14 -287.5 80t-218.5 166q-162 193 -162 500q0 127 41 255t131 236q129 154 297.5 208t320.5 54q116 0 218 -24t176.5 -61t132 -83.5t94.5 -93.5q46 -56 83.5 -126.5t62 -165.5t24.5 -199q0 -117 -34 -252.5t-128 -247.5q-100 -122 -270 -187t-348 -65 v-10q47 -13 137 -58.5t135.5 -65t87.5 -19.5q28 0 57.5 19t47.5 54l163 -90q-82 -169 -164 -239t-147 -70q-48 0 -110.5 29t-122.5 65q-133 84 -240 84q-48 0 -78 -43l-164 103q49 76 93 124.5t86.5 75.5t85.5 41zM827 274q113 0 150 95.5t37 277.5v137q0 180 -35.5 277.5 t-151.5 97.5q-111 0 -148.5 -95.5t-37.5 -277.5v-139q0 -115 14 -196.5t54.5 -129t117.5 -47.5z" />
<glyph unicode="R" horiz-adv-x="1690" d="M72 1434h626q210 0 351.5 -12t252.5 -53.5t171.5 -127t60.5 -229.5q0 -109 -62 -190.5t-155 -123.5l129 -209q16 -25 43 -71t48.5 -73t50 -46.5t77.5 -36.5v-262h-758v262q49 6 68.5 14.5t19.5 38.5q0 28 -41 93l-94 155h-135v-219q0 -38 13.5 -60t66.5 -22v-262h-733 v262h67q55 0 69.5 22t14.5 60v746q0 37 -14.5 59t-69.5 22h-67v263zM725 1137v-287h80q170 0 170 154q0 81 -56 107t-149 26h-45z" />
<glyph unicode="S" horiz-adv-x="1599" d="M72 406h538q6 -71 47.5 -100.5t126.5 -29.5q168 0 168 76q0 69 -145 121q-15 5 -74 27t-110 39q-155 52 -260 102t-178.5 139t-73.5 221q0 134 67.5 238t237.5 167.5t456 63.5q203 0 342.5 -39t219 -137t88.5 -268h-535q0 55 -18.5 84t-52.5 39t-89 10q-139 0 -139 -90 q0 -39 23 -62t59.5 -36t108.5 -31q213 -54 345 -105.5t218 -142.5t86 -233q0 -169 -87 -271t-213 -150t-239.5 -60.5t-206.5 -12.5q-174 0 -325 26.5t-266.5 124t-118.5 290.5z" />
<glyph unicode="T" horiz-adv-x="1587" d="M365 0v262h92q50 0 68 17.5t18 64.5v778h-86q-80 0 -100.5 -13.5t-28.5 -55.5l-27 -121h-264l14 502h1485l14 -502h-264l-26 121q-9 44 -29.5 56.5t-100.5 12.5h-86v-778q0 -39 14 -60.5t70 -21.5h93v-262h-856z" />
<glyph unicode="U" horiz-adv-x="1726" d="M879 1434v-263h-68q-50 0 -67 -17t-17 -64v-396q0 -104 5.5 -169t28.5 -123t74 -92t138 -34q100 0 147.5 54.5t59.5 136t12 203.5v420q0 54 -22 67.5t-64 13.5h-68v263h617v-263h-68q-49 0 -66.5 -17t-17.5 -64v-611q0 -217 -99.5 -332t-224 -148.5t-243.5 -33.5 q-312 0 -469 98.5t-199.5 226.5t-42.5 279v521q0 48 -17 64.5t-69 16.5h-67v263h807z" />
<glyph unicode="V" horiz-adv-x="1597" d="M647 0l-448 1024q-31 71 -52.5 100.5t-46.5 38t-69 8.5h-31v263h811v-263h-68q-30 0 -30 -26q0 -9 22 -64l146 -366h26l135 348q29 69 29 84q0 24 -57 24h-41v263h624v-263l-63 -2q-37 -2 -58.5 -11t-43.5 -42t-54 -112l-393 -1004h-338z" />
<glyph unicode="W" horiz-adv-x="2525" d="M0 1434h860v-263h-96q-31 0 -31 -24q0 -17 27 -74l155 -336h13l276 697h275l315 -676h12l133 338q13 33 13 47q0 19 -16 23.5t-76 4.5h-58v263h723v-263l-41 -2q-43 -2 -58 -4.5t-34 -20.5t-39 -57.5t-55 -125.5l-381 -961h-344l-285 614h-16l-266 -614h-347l-426 975 q-38 88 -65.5 128t-59 54t-85.5 14h-21z" />
<glyph unicode="X" horiz-adv-x="1845" d="M887 1434v-263h-27q-35 0 -35 -30q0 -9 2.5 -14.5t8 -12.5t10.5 -12l92 -121h23l94 121q28 37 28 47q0 22 -39 22h-30v263h665v-263h-57q-56 0 -95 -29.5t-110 -119.5l-178 -227l295 -394q5 -6 9.5 -11t8.5 -11q7 -6 35 -43q33 -39 56.5 -56.5t62.5 -17.5h68v-262h-850 v262q67 3 67 35q0 18 -35 65l-86 117h-22l-105 -131q-22 -28 -22 -55t70 -31v-262h-717v262h65q60 0 101 26t114 120l207 266l-278 373q-8 11 -20.5 26t-29.5 37q-20 31 -42.5 46t-67.5 15h-51v263h815z" />
<glyph unicode="Y" horiz-adv-x="1577" d="M934 1434h618v-263h-51q-35 0 -54 -10t-37 -38.5t-64 -118.5l-285 -570v-112q0 -26 9.5 -43t41.5 -17h107v-262h-824v262h78q86 0 86 47v119l-342 594q-44 77 -79 113t-91 36h-22v263h800v-263h-34q-60 0 -60 -26q0 -15 12 -39l136 -246h12l131 252q12 24 12 37 q0 22 -49 22h-51v263z" />
<glyph unicode="Z" horiz-adv-x="1589" d="M1452 1434v-351l-764 -772h371q60 0 86 8t37 32t24 85l25 115h262l-16 -551h-1381v330l787 792h-322q-63 0 -88.5 -8t-35 -29.5t-23.5 -87.5l-25 -114h-262l14 551h1311z" />
<glyph unicode="[" horiz-adv-x="1016" d="M119 1470h657v-215h-139q-58 0 -71 -18.5t-13 -62.5v-1383q0 -39 14 -60.5t70 -21.5h139v-215h-657v1976z" />
<glyph unicode="\" horiz-adv-x="1323" d="M942 -473l-823 1800l262 143l823 -1802z" />
<glyph unicode="]" horiz-adv-x="1016" d="M897 1470v-1976h-657v215h137q50 0 68 17.5t18 64.5v1383q0 51 -17 66t-69 15h-137v215h657z" />
<glyph unicode="^" horiz-adv-x="1266" d="M627 1470l520 -516h-305l-215 211l-205 -211h-303z" />
<glyph unicode="_" horiz-adv-x="1268" d="M0 -166h1268v-264h-1268v264z" />
<glyph unicode="`" horiz-adv-x="735" d="M580 1640l36 -364h-170l-327 364h461z" />
<glyph unicode="a" horiz-adv-x="1434" d="M578 756h-428q0 155 103 234t232 98.5t279 19.5q180 0 284.5 -36.5t152 -96.5t58.5 -122.5t11 -158.5v-352q0 -34 10 -56t51 -22q7 0 31 4v-293h-201q-110 0 -174.5 26t-89.5 93h-23q-62 -46 -129 -72.5t-135.5 -36.5t-144.5 -10q-204 0 -298.5 93t-94.5 235 q0 147 91 226.5t243 107t356 27.5h74q-5 89 -9 115t-27.5 44.5t-76.5 18.5q-82 0 -112 -29t-33 -57zM836 334v125q-154 0 -207.5 -39.5t-53.5 -83.5q0 -32 27.5 -63t102.5 -31q64 0 97.5 29t33.5 63z" />
<glyph unicode="b" horiz-adv-x="1524" d="M649 1638v-598h15q120 68 268 68q187 0 304.5 -86t166.5 -214.5t49 -260.5q0 -50 -18.5 -141.5t-71 -190t-161 -169.5t-275.5 -71q-197 0 -305 117h-11l-41 -92h-473v215h43q35 0 55.5 12t20.5 54v1077q0 43 -20.5 54t-55.5 11h-43v215h553zM649 721v-440 q32 -20 66.5 -29.5t81.5 -9.5q67 0 101 23t44.5 68t13.5 130v94q-2 112 -7.5 162.5t-38.5 86.5t-107 36q-59 0 -101.5 -28t-52.5 -93z" />
<glyph unicode="c" horiz-adv-x="1434" d="M872 434h490q-3 -85 -43 -166t-118 -147t-198 -106t-278 -40q-37 0 -94.5 5.5t-131.5 23t-155 58.5t-139 104q-55 59 -85.5 134.5t-39 135t-8.5 107.5q0 72 27 172.5t114 195.5q106 116 244.5 156.5t263.5 40.5q156 0 273.5 -40t190.5 -104t113 -142.5t50 -153.5h-478 q-1 102 -44 138t-101 36q-88 0 -119 -64.5t-31 -187.5v-94q0 -104 20 -161t51.5 -75t78.5 -18q147 0 147 192z" />
<glyph unicode="d" horiz-adv-x="1569" d="M713 1638h602v-1357q0 -41 18.5 -53.5t57.5 -12.5h82v-215h-580l-27 94h-8q-115 -119 -293 -119q-98 0 -208.5 41.5t-197.5 167.5t-87 359q0 107 35 207.5t106.5 181t184 128.5t259.5 48q68 0 115 -10.5t92 -36.5h17v297q0 42 -17.5 53.5t-58.5 11.5h-92v215zM881 283 v487q-51 72 -154 72q-93 0 -120 -56.5t-27 -128.5v-41q-5 -45 -5 -61v-94q0 -89 16.5 -137.5t52 -65t95.5 -16.5q83 0 142 41z" />
<glyph unicode="e" horiz-adv-x="1423" d="M868 403h484q-6 -47 -29.5 -108.5t-87 -133.5t-188 -125.5t-318.5 -60.5q-205 0 -331.5 60t-192.5 133q-133 145 -133 373q0 67 18.5 139t49.5 129t73 102q46 50 117.5 94.5t171 73.5t227.5 29q157 0 277 -51t195 -137.5t111 -195t36 -230.5h-775q0 -17 -0.5 -26.5 t-1.5 -21.5q0 -101 33 -152.5t119 -51.5q74 0 106.5 48.5t38.5 112.5zM584 705h282q-2 159 -141 159q-70 0 -105.5 -49t-35.5 -110z" />
<glyph unicode="f" horiz-adv-x="1051" d="M119 0v215h45q41 0 58.5 12.5t17.5 53.5v538h-144v266h144v220q0 64 18.5 121t64 104t130 75.5t202.5 28.5q201 0 371 -96v-266h-215q-2 59 -13.5 81.5t-52.5 22.5q-71 0 -71 -61v-230h186v-266h-186v-538q0 -34 18.5 -50t93.5 -16h33v-215h-700z" />
<glyph unicode="g" horiz-adv-x="1698" d="M1309 -430h-340q18 29 28.5 66.5t10.5 62.5q0 30 -20.5 40.5t-57.5 14.5h-117q-143 -10 -199 -10q-292 0 -392.5 112t-100.5 250q0 131 201 220v10q-59 13 -111 66.5t-83.5 126t-31.5 137.5q0 108 65 209t211.5 167t375.5 66q247 0 417 -129q110 92 271 92q113 0 215 -45 v-281h-215q-4 44 -26 78.5t-64 34.5q-27 0 -56 -14q51 -74 51 -185q0 -90 -50.5 -186t-180.5 -165.5t-352 -69.5q-54 0 -108 5.5t-95 16.5q-42 -1 -63 -21.5t-21 -45.5q0 -67 62.5 -86t179.5 -19h55q46 0 88 2t68 2q147 0 229.5 -6t146.5 -29.5t100 -76.5t36 -144 q0 -64 -39 -138t-88 -128zM719 399q81 0 121.5 45t40.5 183v84q0 112 -32 169.5t-130 57.5t-130 -57.5t-32 -169.5v-84q0 -137 41 -182.5t121 -45.5z" />
<glyph unicode="h" horiz-adv-x="1561" d="M96 1638h555v-610h13q83 37 176 58.5t174 21.5q222 0 288 -84t66 -199v-553q0 -37 21.5 -47t54.5 -10h45v-215h-635v215q49 0 64.5 18t15.5 48v415q0 78 -27.5 112t-97.5 34q-90 0 -124 -36t-34 -120v-405q0 -33 12.5 -49.5t63.5 -16.5h8v-215h-639v215h45q43 0 59.5 15 t16.5 51v1077v24q0 41 -76 41h-45v215z" />
<glyph unicode="i" horiz-adv-x="854" d="M96 0v215h43q45 0 60.5 14.5t15.5 51.5v524q0 43 -20.5 54t-55.5 11h-43v215h662v-215h-33q-36 0 -56 -10.5t-20 -54.5v-524q0 -36 17 -51t59 -15h33v-215h-662zM231 1440q0 61 29 106.5t75.5 70.5t98.5 25q51 0 98 -25t76 -70.5t29 -106.5q0 -79 -58 -141t-145 -62 q-90 0 -146.5 62t-56.5 141z" />
<glyph unicode="j" horiz-adv-x="852" d="M690 1085v-1136q0 -129 -40 -215.5t-108 -134.5t-147 -66t-162 -18q-106 0 -196 20l39 279q42 -29 108 -29q45 0 58.5 34t13.5 103v883q0 43 -20.5 54t-55.5 11h-67v215h577zM242 1436q0 78 58 140t144 62q88 0 146.5 -61.5t58.5 -140.5q0 -80 -58.5 -141.5t-146.5 -61.5 q-85 0 -143.5 61.5t-58.5 141.5z" />
<glyph unicode="k" horiz-adv-x="1632" d="M96 1638h555v-991l228 170q20 16 20 29q0 24 -57 24h-33v215h672v-215h-27q-49 0 -106.5 -22.5t-111 -56.5t-91.5 -68l219 -373q33 -55 54 -80.5t51 -40t77 -14.5h39v-215h-751v215h45q61 0 61 25q0 15 -20 45l-115 184l-154 -115v-73q0 -32 11.5 -49t52.5 -17h20v-215 h-639v215h45q43 0 59.5 15t16.5 51v1101q0 41 -76 41h-45v215z" />
<glyph unicode="l" horiz-adv-x="856" d="M651 1638v-1357q0 -37 16 -51.5t60 -14.5h33v-215h-664v215h45q43 0 59.5 15t16.5 51v1093q0 49 -76 49h-45v215h555z" />
<glyph unicode="m" horiz-adv-x="2296" d="M96 0v215h45q43 0 59.5 15t16.5 51v546q0 43 -76 43h-45v215h555v-57h13q185 80 350 80q228 0 303 -102l20 -2q87 54 190 79t202 25q173 0 264.5 -65t91.5 -218v-551q0 -37 20 -48t56 -11h39v-215h-637v215h20q39 0 53.5 14t14.5 52v419q0 76 -32 109t-106 33 q-83 0 -114 -36.5t-31 -115.5v-418q0 -57 57 -57h15v-215h-586v215h20q60 0 60 66v419q0 74 -28.5 108t-106.5 34q-83 0 -115.5 -36.5t-32.5 -78.5v-446q0 -31 11.5 -48.5t56.5 -17.5h16v-215h-639z" />
<glyph unicode="n" horiz-adv-x="1546" d="M96 0v215h45q43 0 59.5 15t16.5 51v546q0 43 -76 43h-45v215h555v-57h13q38 17 96 36.5t126 31.5t140 12q149 0 228 -43.5t102.5 -104.5t23.5 -135v-553q0 -37 21.5 -47t54.5 -10h43v-215h-633v215q49 0 64.5 18t15.5 48v419q0 76 -30 109t-105 33q-59 0 -94.5 -15 t-50.5 -48t-15 -89v-409q0 -35 12.5 -50.5t61.5 -15.5h8v-215h-637z" />
<glyph unicode="o" horiz-adv-x="1458" d="M729 1108q330 0 514 -197q141 -155 141 -368q0 -111 -35.5 -210t-97.5 -167q-79 -85 -214.5 -138t-307.5 -53q-169 0 -306.5 53t-215.5 138q-62 68 -97.5 167t-35.5 210q0 218 141 368q70 75 192.5 136t321.5 61zM729 842q-92 0 -121.5 -63.5t-29.5 -188.5v-94 q0 -105 18.5 -161.5t50 -74.5t82.5 -18t83 18t50.5 73.5t18.5 162.5v98q0 124 -29.5 186t-122.5 62z" />
<glyph unicode="p" horiz-adv-x="1526" d="M96 1085h473l33 -100h12q102 66 179.5 94.5t189.5 28.5q125 0 215 -45.5t144 -117t81.5 -154.5t30.5 -158v-84q-5 -95 -37.5 -216t-154 -239.5t-357.5 -118.5q-90 0 -145 15.5t-101 52.5h-10v-190q0 -32 13 -48.5t63 -17.5l94 -2v-215h-723v215h43q47 0 61.5 13.5 t14.5 51.5v955q0 43 -20.5 54t-55.5 11h-43v215zM649 723v-426q49 -55 133 -55q57 0 92.5 24t51.5 63.5t20 83.5t4 113v45q0 133 -25 202t-114 69q-42 0 -90 -27t-72 -92z" />
<glyph unicode="q" horiz-adv-x="1524" d="M731 -430v215l92 2q37 0 56.5 11.5t19.5 54.5v223q-86 -57 -169.5 -79t-154.5 -22q-181 0 -288.5 88t-149 215t-41.5 257q0 94 30.5 194t95.5 185.5t177 139.5t271 54q166 0 250 -88h16l45 65h471v-215h-45q-33 0 -53.5 -11t-20.5 -54v-955q0 -36 14.5 -50.5t59.5 -14.5 h45v-215h-721zM899 356v408q-13 27 -48 55.5t-97 28.5q-66 0 -100 -32t-44 -90.5t-10 -150.5v-90q0 -114 31.5 -178.5t118.5 -64.5q42 0 86.5 25.5t62.5 88.5z" />
<glyph unicode="r" horiz-adv-x="1149" d="M96 0v215h45q43 0 59.5 15t16.5 51v546q0 43 -76 43h-45v215h555v-81h13q46 46 95 69.5t81 29t51 5.5q162 0 211 -127v-334h-215v58q0 71 -28.5 104t-94.5 33t-89.5 -34t-23.5 -118v-409q0 -32 13 -49t63 -17h55v-215h-686z" />
<glyph unicode="s" horiz-adv-x="1278" d="M72 299h415q2 -92 134 -92q141 0 141 92q0 32 -40 53.5t-165 57.5q-152 42 -243.5 81t-152.5 109t-61 178q0 140 93 213.5t218.5 95t262.5 21.5q117 0 202.5 -13.5t154.5 -50t108.5 -101.5t40.5 -165h-412q-7 54 -38 73t-97 19q-107 0 -107 -63q0 -28 25.5 -45t69.5 -27 t71 -16q60 -14 160 -38t170.5 -59.5t115 -100t44.5 -165.5q0 -163 -102.5 -248t-228 -109t-245.5 -24q-125 0 -237.5 18t-202.5 90t-94 216z" />
<glyph unicode="t" horiz-adv-x="1096" d="M711 1085h274v-266h-274v-434q0 -75 12.5 -112t62.5 -37q21 0 50.5 16.5t50.5 38.5l112 -109q-56 -89 -154 -148t-231 -59q-150 0 -223.5 58.5t-94 152.5t-20.5 244v389h-229v266q335 0 399 402h265v-402z" />
<glyph unicode="u" horiz-adv-x="1556" d="M936 0l-18 94h-11q-194 -119 -356 -119q-180 0 -270.5 72t-90.5 236v569q0 41 -73 41h-45v192h553v-700q0 -76 29.5 -109.5t105.5 -33.5q85 0 115 37t30 79v476q0 13 -19.5 24.5t-54.5 11.5h-32v215h540v-804q0 -37 16 -51.5t60 -14.5h45v-215h-524z" />
<glyph unicode="v" horiz-adv-x="1477" d="M47 1085h748v-215h-72q-43 0 -47 -22v-14q1 -14 9.5 -31.5t10.5 -22.5l140 -286h16l127 276q27 57 27 74q0 26 -29 26h-70v215h570v-215h-66q-33 0 -52.5 -20t-33.5 -52.5t-27 -62.5l-337 -735h-369l-381 797q-18 41 -38.5 57t-59.5 16h-66v215z" />
<glyph unicode="w" horiz-adv-x="2103" d="M47 1085h705v-215h-80q-43 0 -43 -18q0 -7 6 -16l135 -314h16l258 563h199l281 -546h16l88 278q10 33 10 45q0 8 -57 8h-45v215h567v-215h-41q-63 0 -83 -26.5t-48 -108.5l-239 -735h-371l-203 395h-22l-183 -395h-364l-330 772q-22 52 -43 75t-78 23h-51v215z" />
<glyph unicode="x" horiz-adv-x="1386" d="M0 1085h674v-215h-39q-19 0 -19 -12q0 -7 9 -16l98 -119h2l88 125q4 4 4 6v8q-2 8 -14 8h-33v215h555v-215h-22q-53 0 -91 -10q-38 -9 -69 -55l-162 -232l238 -272q4 -5 11 -12l21 -21q56 -53 121 -53h14v-215h-684v215h37q29 0 29 14q0 9 -12 25l-111 127l-100 -141 q-6 -12 -6 -13q0 -12 24 -12h41v-215h-604v215h49q77 0 108 20.5t76 86.5l144 206l-221 271q-30 41 -49 56t-66 15h-41v215z" />
<glyph unicode="y" horiz-adv-x="1485" d="M0 1085h772v-215h-84q-53 0 -53 -28q0 -12 8 -25l197 -373h26l138 353q14 42 14 47q0 26 -66 26h-45v215h578v-215h-53q-36 0 -54.5 -17.5t-29 -45t-25.5 -68.5l-446 -1015q-41 -93 -129 -161.5t-238 -68.5q-81 0 -172 37v311q60 -20 108 -20q31 0 73 35t42 141l-422 795 q-21 43 -42 60t-68 17h-29v215z" />
<glyph unicode="z" horiz-adv-x="1331" d="M154 1085h1071v-280l-600 -539h297q26 0 41 12t26 58l21 90h215v-426h-1106v283l592 536h-211q-53 0 -73 -5t-27 -22t-17 -67l-14 -66h-215v426z" />
<glyph unicode="{" horiz-adv-x="1161" d="M119 418v250q237 28 237 303q0 53 -4 134t-4 105q0 145 113 237.5t454 92.5h103v-215q-100 -9 -136 -61.5t-36 -110.5q0 -31 4 -80t4 -166q0 -81 -20.5 -144t-80.5 -117.5t-178 -90.5v-25q115 -34 177 -89.5t82 -118.5t20 -144q0 -117 -4 -165t-4 -81q0 -155 172 -172 v-215h-103q-177 0 -294.5 29.5t-174.5 76.5t-77.5 104t-20.5 120q0 24 4 105t4 135q0 274 -237 303z" />
<glyph unicode="|" horiz-adv-x="504" d="M119 -573v2156h266v-2156h-266z" />
<glyph unicode="}" horiz-adv-x="1161" d="M1018 668v-250q-238 -29 -238 -303q0 -54 4 -135t4 -105q0 -91 -40 -162t-164.5 -119.5t-362.5 -48.5h-102v215q172 17 172 172q0 33 -4 81t-4 165q0 81 19.5 144t81.5 118.5t177 89.5v25q-118 36 -178 90.5t-80 117.5t-20 144q0 117 4 166t4 80q0 59 -35.5 111 t-136.5 61v215h102q236 0 361.5 -48t165.5 -119.5t40 -162.5q0 -24 -4 -105t-4 -134q0 -275 238 -303z" />
<glyph unicode="~" horiz-adv-x="1434" d="M1126 918l189 -58q-94 -200 -192.5 -264t-178.5 -64q-56 0 -95.5 10.5t-146.5 47.5q-73 28 -129.5 43.5t-111.5 15.5q-47 0 -88 -19.5t-64 -62.5l-190 56q58 111 149 201.5t219 90.5q75 0 111 -10t160 -51q148 -49 205 -49q61 0 101.5 33.5t61.5 79.5z" />
<glyph horiz-adv-x="1995" d="M356 0v262h93q54 0 68.5 21.5t14.5 60.5v803h-83q-62 0 -87 -10t-38 -46t-31 -137h-256l6 480h1495l6 -416h-262q-9 61 -22.5 88.5t-38 34t-84.5 6.5h-103v-264q172 45 299 45q157 0 297.5 -39.5t234 -137.5t93.5 -262q0 -86 -34 -175.5t-110 -169.5t-204 -129.5 t-307 -49.5h-78v285q98 0 138 58t40 116q0 40 -27 77.5t-82.5 60t-134.5 22.5q-60 0 -125 -13v-571h-678z" />
<glyph horiz-adv-x="1274" d="M72 0v262h69q56 0 70 19t14 63v746q0 44 -13.5 62.5t-70.5 18.5h-69v263h1202v-514h-250q-2 46 -16 108q-11 50 -34 72t-95 22h-152v-776q0 -49 17 -66.5t67 -17.5h92v-262h-831z" />
<glyph horiz-adv-x="1663" d="M719 901h43q42 0 64.5 16t42.5 59.5t69 166.5q31 81 75 152.5t124 123t202 51.5q112 0 224 -34v-338q-42 -1 -72 -18.5t-50.5 -42.5t-51.5 -70q-35 -54 -67 -91t-85.5 -65t-144.5 -41v-25q101 0 192 -46.5t129 -184.5q2 -5 11.5 -34t21 -46t29 -27t45.5 -10q31 0 71 11 v-408q-56 -21 -101 -28t-108 -7q-85 0 -145.5 15.5t-117.5 61.5t-108 132.5t-102 226.5q-32 90 -45 119t-46 50.5t-99 21.5v-244q0 -46 18 -66t72 -20h39v-262h-776v262h53q57 0 74.5 19.5t17.5 66.5v737q0 48 -17.5 67t-74.5 19h-53v263h780v-263h-43q-53 0 -71.5 -19.5 t-18.5 -66.5v-184z" />
<glyph horiz-adv-x="1964" d="M356 0v262h93q55 0 68 17t15 55q1 13 2 25.5t1 17.5v770h-86q-62 0 -87 -10t-38 -46t-31 -137h-256l6 480h1497l6 -416h-262q-10 64 -24 90.5t-37.5 32.5t-83.5 6h-103v-287q100 37 217 59.5t201 22.5q154 0 232.5 -47t100 -108.5t21.5 -127.5v-340q0 -57 76 -57h43v-262 h-700v262q48 0 64 17.5t16 48.5v141q0 80 -33 111.5t-115 31.5q-31 0 -68.5 -13t-54.5 -48v-551h-680z" />
<glyph horiz-adv-x="1800" d="M72 1434h753v-263h-20q-44 0 -61 -17t-17 -64v-779h346v779q0 40 -13 60.5t-63 20.5h-20v263h752v-263h-68q-55 0 -68.5 -16.5t-15.5 -56.5q0 -17 -0.5 -25.5t-1.5 -19.5v-672q1 -10 1.5 -19.5t0.5 -25.5q2 -40 16 -57t68 -17h68v-262h-697v-406h-264v406h-696v262h67 q58 0 72 21.5t14 60.5v746q0 38 -14 59.5t-72 21.5h-67v263z" />
<glyph horiz-adv-x="1571" d="M98 1638h553v-305h318v-166h-318v-196q144 65 318 65q212 0 328 -87.5t159 -245t43 -392.5q0 -233 -34 -389t-101 -250.5t-165 -136t-236 -41.5q-124 0 -208 30t-153 85l29 168q91 -43 217 -43q93 0 118 50t27 144q1 23 1.5 38t0.5 32v510q0 159 -28 227t-136 68 q-68 0 -113 -22.5t-67 -47.5v-452q0 -28 12.5 -47t53.5 -19h18v-215h-639v215h45q43 0 59.5 15t16.5 51v886h-119v166h119v25q0 37 -14.5 51t-61.5 14h-43v215z" />
<glyph horiz-adv-x="1477" d="M649 698h35q47 0 73.5 28t86.5 157q47 100 118.5 162.5t223.5 62.5q107 0 196 -18v-263h-45q-34 0 -60 -27t-54 -69q-39 -61 -85.5 -96.5t-144.5 -50.5v-21q208 0 267 -174q13 -40 27 -59t50 -19q35 0 68 11v-314q-93 -33 -199 -33q-105 0 -176.5 32.5t-120.5 99.5 t-96 188q-25 68 -49 102.5t-78 34.5h-37v-151q0 -36 17 -51t59 -15h33v-215h-662v215h43q45 0 60.5 14.5t15.5 51.5v524q0 43 -20.5 54t-55.5 11h-43v215h662v-215h-33q-36 0 -56 -10.5t-20 -54.5v-107z" />
<glyph horiz-adv-x="1561" d="M98 1638h553v-299h363v-168h-363v-143h13q83 37 176 58.5t174 21.5q222 0 288 -84t66 -199v-553q0 -37 21.5 -47t54.5 -10h45v-215h-635v215q49 0 64.5 18t15.5 48v415q0 69 -24 107.5t-101 38.5q-90 0 -124 -36t-34 -120v-405q0 -33 12.5 -49.5t63.5 -16.5h8v-215h-639 v215h45q43 0 59.5 15t16.5 51v890h-121v168h121v43q0 41 -74 41h-45v215z" />
<glyph unicode="&#xa1;" horiz-adv-x="1614" d="M999 1434h615v-263q-71 -5 -102 -11.5t-43 -21t-29 -57.5q-6 -17 -14.5 -35t-18.5 -40l-180 -416q-96 -220 -174.5 -344.5t-154 -185.5t-150.5 -78t-191 -17q-66 0 -133 7t-160 28v395q104 -55 205 -55q48 0 84 11t53 48l-383 625q-7 11 -9 15t-11 19t-23 36 q-29 44 -51 60.5t-80 16.5h-49v263h821v-263h-26q-56 0 -56 -34q0 -17 21 -56l180 -293l113 261q7 14 10 26q6 12 8 17q12 27 12 45q0 13 -13.5 23.5t-45.5 10.5h-25v263zM352 1845h344q11 -46 48.5 -72t95.5 -26t96 26.5t47 71.5h344q-8 -92 -69.5 -167t-169 -118.5 t-248.5 -43.5t-248.5 43t-170 119.5t-69.5 166.5z" />
<glyph unicode="&#xa2;" horiz-adv-x="1485" d="M0 1085h772v-215h-84q-53 0 -53 -28q0 -12 8 -25l197 -373h26l138 353q14 42 14 47q0 26 -66 26h-45v215h578v-215h-53q-36 0 -54.5 -17.5t-29 -45t-25.5 -68.5l-446 -1015q-41 -93 -129 -161.5t-238 -68.5q-81 0 -172 37v311q60 -20 108 -20q31 0 73 35t42 141l-422 795 q-21 43 -42 60t-68 17h-29v215zM252 1550h356q0 -49 36.5 -88t121.5 -39q75 0 114.5 38t39.5 89h356q-4 -116 -85 -195.5t-199 -119t-228 -39.5q-77 0 -167 22t-169 66.5t-127.5 112t-48.5 153.5z" />
<glyph unicode="&#xa3;" horiz-adv-x="967" d="M41 1434h829v-263h-67q-52 0 -66 -22t-14 -59v-603q0 -92 -12 -175.5t-54.5 -164.5t-129.5 -131.5t-222 -50.5t-200.5 14t-104.5 39v312q44 -31 70 -42.5t63 -11.5q88 0 88 119v692q0 51 -17.5 67.5t-70.5 16.5h-92v263z" />
<glyph unicode="&#xa4;" horiz-adv-x="1599" d="M242 1393l202 -203q176 119 357 119q89 0 180 -29.5t172 -89.5l205 205l123 -123l-205 -205q60 -82 89.5 -173.5t29.5 -180.5q0 -59 -13 -119t-40 -120.5t-66 -115.5l203 -202l-121 -123l-203 203q-161 -117 -354 -117q-96 0 -187 31.5t-170 85.5l-202 -203l-123 123 l205 204q-119 157 -119 353q0 89 29.5 180.5t89.5 173.5l-205 205zM444 713q0 -103 51.5 -183.5t135.5 -126t170 -45.5q85 0 168 45t134.5 126.5t51.5 183.5q0 103 -51.5 184.5t-134.5 126.5t-168 45q-100 0 -182.5 -51.5t-128.5 -133.5t-46 -171z" />
<glyph unicode="&#xa5;" horiz-adv-x="1288" d="M72 0v262h69q56 0 70 19t14 63v746q0 44 -13.5 62.5t-70.5 18.5h-69v263h807q59 0 88 18t40.5 60.5t16.5 125.5h264v-516h-561v-776q0 -49 17 -66.5t67 -17.5h92v-262h-831z" />
<glyph unicode="&#xa6;" d="M119 240q0 102 74 182t190 80q78 0 137.5 -37.5t92 -97.5t32.5 -127q0 -106 -73 -185.5t-189 -79.5q-76 0 -137 38t-94 98.5t-33 128.5zM119 870q0 102 74 182.5t190 80.5t189 -79.5t73 -183.5t-73 -184t-189 -80t-190 82.5t-74 181.5z" />
<glyph unicode="&#xa7;" horiz-adv-x="1528" d="M119 -35h346q4 -95 14 -138t50 -64t126 -21q91 0 142 37.5t51 91.5q0 45 -24.5 78t-64.5 58t-84 43t-110 44q-154 65 -209.5 91t-112.5 66.5t-90.5 97.5t-33.5 130q0 68 49 148.5t203 148.5v23q-79 51 -118.5 105t-51 102t-11.5 100q0 78 62.5 163.5t193.5 143t324 57.5 q105 0 209 -21t201 -72.5t166 -133.5l2 -211h-344q-2 88 -17 133.5t-55 65.5t-119 20q-104 0 -146 -42.5t-42 -98.5q0 -39 28 -71t77.5 -60t131 -62.5t148.5 -62.5q98 -40 162.5 -71t119 -73.5t86 -99.5t31.5 -133q0 -172 -211 -332v-12q115 -83 115 -227q0 -89 -72.5 -177 t-220.5 -145t-361 -57q-145 0 -300 52t-240 175v211zM645 422l318 -148q65 55 65 115q0 27 -22.5 48.5t-54 38t-167.5 83.5l-229 111q-31 -9 -51.5 -35.5t-20.5 -65.5q0 -38 35.5 -71t126.5 -76z" />
<glyph unicode="&#xa8;" horiz-adv-x="1446" d="M72 0v262h69q56 0 70 19t14 63v746q0 44 -12.5 62.5t-69.5 18.5h-71v263h1276v-461h-263q-7 50 -16 90q-9 37 -31.5 48t-97.5 11h-213v-239h328v-312h-328v-260h201q80 0 112.5 17t49.5 58.5t20 80.5h264l-12 -467h-1290zM178 1743q0 68 31.5 119t83 79.5t106.5 28.5 q56 0 108 -28t84 -79.5t32 -119.5q0 -98 -67.5 -162.5t-156.5 -64.5q-57 0 -107.5 29t-82 81t-31.5 117zM823 1743q0 57 28 109.5t78.5 85t114.5 32.5q65 0 116 -32t79.5 -85t28.5 -110q0 -55 -29 -108.5t-80 -86t-115 -32.5q-94 0 -157.5 69t-63.5 158z" />
<glyph unicode="&#xa9;" horiz-adv-x="1743" d="M119 719q0 137 53 272t154 244.5t241.5 172t304.5 62.5q168 0 307 -63t238.5 -170t153 -241.5t53.5 -276.5q0 -141 -54 -276t-152.5 -242.5t-239.5 -171.5t-306 -64q-166 0 -304.5 63t-240.5 174.5t-155 246.5t-53 270zM973 639h289q-3 -83 -42.5 -158.5t-124.5 -124.5 t-212 -49q-81 0 -169.5 27t-152.5 110q-41 55 -61.5 122t-20.5 151q0 154 88 268q68 86 152.5 114.5t163.5 28.5q71 0 154 -27.5t148 -99.5t72 -192h-286q0 145 -88 145q-38 0 -64 -37.5t-26 -107.5v-170q0 -61 21.5 -109.5t68.5 -48.5q90 0 90 158zM301 719q0 -143 72 -276 t203 -214.5t296 -81.5q125 0 232 48.5t181 128.5t115.5 184.5t41.5 210.5q0 105 -40.5 209t-114 183.5t-181 128t-234.5 48.5q-166 0 -297 -81.5t-202.5 -214.5t-71.5 -273z" />
<glyph unicode="&#xaa;" horiz-adv-x="1657" d="M1087 573h533q-8 -158 -89 -295.5t-252.5 -225t-436.5 -87.5q-248 0 -409.5 80.5t-247 203.5t-117 253t-31.5 241q0 241 109 406t291 243t405 78q246 0 413 -72t251.5 -194.5t92.5 -273.5h-534q-5 81 -52.5 155t-166.5 74q-114 0 -158.5 -75t-44.5 -205h340v-306h-340 q-2 -14 -2 -43q0 -61 21 -120t68 -96.5t120 -37.5q230 0 237 297z" />
<glyph unicode="&#xab;" horiz-adv-x="1675" d="M119 627l479 583l303 -73l-348 -535l260 -555l-281 -47zM821 610l410 502l276 -78l-254 -444l224 -469l-299 -51z" />
<glyph unicode="&#xac;" horiz-adv-x="1325" d="M942 336v229h-823v264h1087v-493h-264z" />
<glyph unicode="&#xad;" horiz-adv-x="1098" d="M119 412v311h860v-311h-860z" />
<glyph unicode="&#xae;" horiz-adv-x="1937" d="M119 737q0 185 73 344.5t196 272.5t274.5 174t304.5 61q156 0 309.5 -61t274.5 -172.5t194.5 -270.5t73.5 -348q0 -186 -72.5 -342.5t-194.5 -269.5t-275 -173.5t-310 -60.5q-155 0 -305.5 60.5t-273.5 173.5t-196 271t-73 341zM319 737q0 -119 46 -235.5t131.5 -210 t206.5 -148.5t264 -55q144 0 267 56t207.5 148.5t130.5 208.5t46 236q0 121 -45.5 238.5t-131 211t-206.5 148t-268 54.5q-143 0 -262.5 -53.5t-207 -149t-133 -211.5t-45.5 -238zM598 1174h416q55 0 122 -15t124 -69.5t57 -159.5q0 -45 -25 -97t-84 -85l62 -134 q19 -42 52 -80t69 -38h20v-150h-403v150h14q11 0 21 9t10 21q0 9 -7 24.5t-16 31.5l-47 90h-65v-131q0 -45 26 -45h17v-150h-363v150h33q45 0 45 51v448q0 25 -45 25h-33v154zM918 1001v-165h26q94 0 94 92q0 73 -100 73h-20z" />
<glyph unicode="&#xaf;" horiz-adv-x="1016" d="M123 0v262h59q49 0 61.5 19t12.5 63v746q0 44 -12 62.5t-62 18.5h-59v263h770v-263h-62q-44 0 -58.5 -16.5t-14.5 -64.5v-746q0 -47 15.5 -64.5t57.5 -17.5h62v-262h-770zM12 1737q0 56 27.5 107t77.5 82.5t116 31.5q88 0 155 -61.5t67 -159.5t-67 -159.5t-155 -61.5 q-87 0 -154 61.5t-67 159.5zM561 1737q0 56 27.5 107t77.5 82.5t116 31.5q67 0 117 -31.5t77.5 -82t27.5 -107.5q0 -58 -27.5 -108.5t-78 -81.5t-116.5 -31q-65 0 -115.5 31t-78 81.5t-27.5 108.5z" />
<glyph unicode="&#xb0;" horiz-adv-x="836" d="M119 1171q0 86 43.5 155.5t112.5 106.5t143 37q86 0 154.5 -43.5t106.5 -112.5t38 -143q0 -73 -38.5 -143t-106.5 -113t-154 -43q-74 0 -143 38t-112.5 106.5t-43.5 154.5zM287 1171q0 -39 19 -68t49 -46t63 -17q56 0 93.5 40.5t37.5 90.5q0 56 -40.5 94t-90.5 38 q-56 0 -93.5 -40.5t-37.5 -91.5z" />
<glyph unicode="&#xb1;" horiz-adv-x="1300" d="M782 358h-262v400h-401v262h401v399h262v-399h400v-262h-400v-400zM119 0v262h1063v-262h-1063z" />
<glyph unicode="&#xb2;" horiz-adv-x="913" d="M72 0v262h59q49 0 61.5 19t12.5 63v746q0 44 -12 62.5t-62 18.5h-59v263h770v-263h-62q-44 0 -58.5 -16.5t-14.5 -64.5v-746q0 -47 15.5 -64.5t57.5 -17.5h62v-262h-770z" />
<glyph unicode="&#xb3;" horiz-adv-x="854" d="M96 0v215h43q45 0 60.5 14.5t15.5 51.5v524q0 43 -20.5 54t-55.5 11h-43v215h662v-215h-33q-36 0 -56 -10.5t-20 -54.5v-524q0 -36 17 -51t59 -15h33v-215h-662zM231 1440q0 61 29 106.5t75.5 70.5t98.5 25q51 0 98 -25t76 -70.5t29 -106.5q0 -79 -58 -141t-145 -62 q-90 0 -146.5 62t-56.5 141z" />
<glyph unicode="&#xb4;" horiz-adv-x="1161" d="M96 1085h680q46 0 66.5 5t29.5 14.5t12.5 30t8.5 45.5l18 77h203v-440h-465v-536q0 -39 18 -52.5t58 -13.5h70v-215h-699v215h45q74 0 74 41v571q0 16 -16 29.5t-58 13.5h-45v215z" />
<glyph unicode="&#xb5;" horiz-adv-x="1425" d="M1329 1085v-1085h-325v244h-9q-25 -83 -77 -145t-111 -93t-107 -31q-46 0 -106.5 31t-111.5 93t-76 145h-9v-733h-325v1574h434v-559q0 -186 64.5 -247.5t129.5 -61.5t130 61.5t65 247.5v559h434z" />
<glyph unicode="&#xb6;" horiz-adv-x="1786" d="M1153 -506v1659h-252v-1659h-280v1286h-39q-201 0 -271.5 101t-70.5 215q0 216 137.5 277t327.5 61h841v-281h-112v-1659h-281z" />
<glyph unicode="&#xb8;" horiz-adv-x="1423" d="M868 403h484q-6 -47 -29.5 -108.5t-87 -133.5t-188 -125.5t-318.5 -60.5q-205 0 -331.5 60t-192.5 133q-133 145 -133 373q0 67 18.5 139t49.5 129t73 102q46 50 117.5 94.5t171 73.5t227.5 29q157 0 277 -51t195 -137.5t111 -195t36 -230.5h-775q0 -17 -0.5 -26.5 t-1.5 -21.5q0 -101 33 -152.5t119 -51.5q74 0 106.5 48.5t38.5 112.5zM584 705h282q-2 159 -141 159q-70 0 -105.5 -49t-35.5 -110zM215 1438q0 79 56.5 140.5t146.5 61.5q51 0 98 -25t76 -70.5t29 -106.5q0 -87 -62 -145t-141 -58q-90 0 -146.5 62t-56.5 141zM801 1438 q0 90 62.5 146t140.5 56q80 0 141 -56t61 -146q0 -51 -24.5 -97.5t-70.5 -76t-107 -29.5q-79 0 -141 58t-62 145z" />
<glyph unicode="&#xb9;" horiz-adv-x="2863" d="M72 1434h600l555 -783v406q1 12 1.5 21t0.5 22q0 36 -16 53.5t-68 17.5h-66v263h609v-263h-68q-53 0 -67.5 -22t-14.5 -59v-1090h-459l-547 768v-391q1 -7 2 -16t1 -27q2 -37 15 -54.5t62 -17.5h66v-262h-606v262h67q54 0 68 22t14 60v746q0 37 -13.5 59t-68.5 22h-67 v263zM1853 4v272h852v-272h-852zM2271 1391q165 0 269.5 -49t159.5 -127t73 -156t18 -158q0 -110 -38.5 -218.5t-154 -189.5t-327.5 -81q-303 0 -411.5 152.5t-108.5 336.5q0 185 108.5 337.5t411.5 152.5zM2269 641q44 0 71 27t27 67v332q0 40 -27 67t-71 27 q-43 0 -70.5 -26.5t-27.5 -67.5v-332q0 -41 27.5 -67.5t70.5 -26.5z" />
<glyph unicode="&#xba;" horiz-adv-x="1423" d="M870 412h482q-7 -113 -68 -211.5t-200.5 -162t-362.5 -63.5q-99 0 -196.5 21.5t-181 65t-138.5 104.5q-73 81 -103 179.5t-30 197.5q0 88 31.5 186t107.5 184q73 83 167 126t181.5 56t157.5 13q165 0 294 -45t210 -131t108 -205h-465q-5 66 -51.5 90.5t-91.5 24.5 q-83 0 -114.5 -50t-31.5 -110h242v-236h-242q0 -204 146 -204q73 0 111 43.5t38 87.5v39z" />
<glyph unicode="&#xbb;" horiz-adv-x="1698" d="M1579 627l-414 -627l-280 47l262 555l-348 535l301 73zM877 610l-355 -540l-301 51l223 469l-254 444l277 78z" />
<glyph unicode="&#xbc;" horiz-adv-x="852" d="M690 1085v-1136q0 -129 -40 -215.5t-108 -134.5t-147 -66t-162 -18q-106 0 -196 20l39 279q42 -29 108 -29q45 0 58.5 34t13.5 103v883q0 43 -20.5 54t-55.5 11h-67v215h577zM242 1436q0 78 58 140t144 62q88 0 146.5 -61.5t58.5 -140.5q0 -80 -58.5 -141.5t-146.5 -61.5 q-85 0 -143.5 61.5t-58.5 141.5z" />
<glyph unicode="&#xbd;" horiz-adv-x="1599" d="M72 406h538q6 -71 47.5 -100.5t126.5 -29.5q168 0 168 76q0 69 -145 121q-15 5 -74 27t-110 39q-155 52 -260 102t-178.5 139t-73.5 221q0 134 67.5 238t237.5 167.5t456 63.5q203 0 342.5 -39t219 -137t88.5 -268h-535q0 55 -18.5 84t-52.5 39t-89 10q-139 0 -139 -90 q0 -39 23 -62t59.5 -36t108.5 -31q213 -54 345 -105.5t218 -142.5t86 -233q0 -169 -87 -271t-213 -150t-239.5 -60.5t-206.5 -12.5q-174 0 -325 26.5t-266.5 124t-118.5 290.5z" />
<glyph unicode="&#xbe;" horiz-adv-x="1278" d="M72 299h415q2 -92 134 -92q141 0 141 92q0 32 -40 53.5t-165 57.5q-152 42 -243.5 81t-152.5 109t-61 178q0 140 93 213.5t218.5 95t262.5 21.5q117 0 202.5 -13.5t154.5 -50t108.5 -101.5t40.5 -165h-412q-7 54 -38 73t-97 19q-107 0 -107 -63q0 -28 25.5 -45t69.5 -27 t71 -16q60 -14 160 -38t170.5 -59.5t115 -100t44.5 -165.5q0 -163 -102.5 -248t-228 -109t-245.5 -24q-125 0 -237.5 18t-202.5 90t-94 216z" />
<glyph unicode="&#xbf;" horiz-adv-x="969" d="M137 0v215h45q41 0 58.5 12.5t17.5 53.5v524q0 42 -18.5 53.5t-57.5 11.5h-45v215h664v-215h-33q-37 0 -56.5 -11.5t-19.5 -53.5v-524q0 -41 18.5 -53.5t57.5 -12.5h33v-215h-664zM12 1440q0 61 29 106.5t76 70.5t98 25q52 0 98.5 -25t75.5 -70.5t29 -106.5 q0 -79 -56.5 -141t-146.5 -62q-87 0 -145 62t-58 141zM551 1440q0 90 62.5 146t140.5 56q80 0 141 -56t61 -146q0 -78 -56 -140.5t-146 -62.5q-79 0 -141 58t-62 145z" />
<glyph unicode="&#x152;" horiz-adv-x="2474" d="M1579 913h213q265 0 409.5 -77t190 -182.5t45.5 -219.5q0 -152 -86.5 -242t-216.5 -131t-252 -51t-256 -10h-647v262h27q39 0 55 18t16 64v262h-350v-262q0 -27 4 -43.5t22.5 -27.5t53.5 -11h18v-262h-753v262h67q51 0 68.5 17t17.5 65v746q0 48 -17 64.5t-69 16.5h-67 v263h749v-263h-12q-53 0 -67.5 -22t-14.5 -59v-177h350v177q0 48 -17 64.5t-69 16.5h-12v263h754v-263h-70q-56 0 -70 -21.5t-14 -59.5v-177zM1579 604v-307h72q112 0 157 45t45 109q0 61 -41.5 108t-171.5 47z" />
<glyph unicode="&#x153;" horiz-adv-x="2126" d="M96 1085h641v-215h-10q-40 0 -59 -11t-19 -54v-119h285v141q0 16 -16 29.5t-58 13.5h-12v215h639v-217h-43q-40 0 -58 -11.5t-18 -51.5v-96h197q489 0 489 -349q0 -124 -59.5 -198.5t-157.5 -108.5t-210 -43.5t-261 -9.5h-518v215h12q42 0 58 13.5t16 27.5v164h-285v-137 q0 -44 22.5 -56t55.5 -12h10v-215h-641v215h45q46 0 60 14.5t14 51.5v546q0 16 -16 29.5t-58 13.5h-45v215zM1368 260h37q94 0 132 33.5t38 79.5q0 29 -14.5 54t-53.5 41.5t-102 16.5h-37v-225z" />
<glyph unicode="&#x160;" horiz-adv-x="2456" d="M201 1434h1515v-263h-57q-57 0 -76.5 -19t-19.5 -67v-170h211q265 0 409 -77t190 -183t46 -221q0 -152 -86.5 -242t-216.5 -131t-252 -51t-256 -10h-672v262h27q57 0 76.5 19.5t19.5 66.5v774h-256q-1 -26 -1.5 -50.5t-1.5 -48t-1.5 -47t-1.5 -46.5q-1 -52 -3 -106.5 t-4.5 -106t-9.5 -142.5q-8 -125 -25.5 -225t-64.5 -188.5t-139 -142.5t-236 -54q-136 0 -243 47v406q105 -21 129 -21q67 0 107 42.5t58 116t23.5 178.5t7.5 247v68q-2 58 -7.5 81t-26 32t-72.5 9h-90v263zM1563 604v-307h69q203 0 203 154q0 64 -40 109.5t-171 45.5 q-39 0 -61 -2z" />
<glyph unicode="&#x161;" horiz-adv-x="2064" d="M1427 1085v-215h-45q-37 0 -56 -12t-19 -53v-94h196q239 0 364.5 -83t125.5 -268q0 -124 -58.5 -199.5t-155 -109.5t-209 -42.5t-263.5 -8.5h-531v215h21q33 0 54 12t21 54v534h-198q-1 -12 -3 -54t-3 -72.5t-2 -55.5q-8 -314 -58 -447q-27 -71 -69.5 -117t-106 -70 t-147.5 -24q-96 0 -189 33v314q48 -9 49 -9q25 -8 58 -8q62 0 94 49.5t41.5 124t9.5 183.5v116q0 43 -8 63.5t-23.5 24.5t-50.5 4h-71v215h1232zM1307 260h36q95 0 132.5 33t37.5 80t-37.5 79.5t-132.5 32.5h-36v-225z" />
<glyph unicode="&#x178;" horiz-adv-x="1579" d="M96 1085h647v-215h-12q-48 0 -63 -17t-15 -50v-537h273v539q0 42 -21 53.5t-57 11.5h-12v215h647v-215h-45q-40 0 -59 -11t-19 -56v-522q0 -36 16.5 -51t61.5 -15h45v-215h-537v-406h-313v406h-537v215h45q38 0 58 12.5t20 30.5v547q0 42 -21 53.5t-57 11.5h-45v215z" />
<glyph unicode="&#x192;" horiz-adv-x="1161" d="M96 1085h1018v-438h-203l-18 78q-5 24 -8.5 45t-12.5 31t-29.5 14t-66.5 4h-127v-538q0 -39 18 -52.5t58 -13.5h70v-215h-699v215h45q74 0 74 41v571q0 16 -16 29.5t-58 13.5h-45v215z" />
<glyph unicode="&#x410;" horiz-adv-x="1663" d="M309 1434h856l340 -1049q16 -51 26.5 -72.5t33 -36t63.5 -14.5h35v-262h-764v262h59q64 0 64 33q0 20 -16 57h-498l-6 -24q2 -16 15.5 -41t47.5 -25h25v-262h-590v262h37q67 0 91.5 26t51.5 101l252 686q4 12 6 21q3 6 4 8.5t2 5.5q9 14 9 31q0 30 -56 30h-88v263z M764 1063l-148 -399h289l-129 399h-12z" />
<glyph unicode="&#x411;" horiz-adv-x="1622" d="M1436 1434v-433h-252q-10 78 -33 99.5t-104 21.5h-291v-248h182q187 0 327.5 -37t225 -134t84.5 -261q0 -190 -108 -286.5t-294 -126t-473 -29.5h-600v262h68q59 0 72.5 19t13.5 63v746q0 44 -13 62.5t-73 18.5h-96v263h1364zM756 287h41q124 0 171.5 41.5t47.5 113.5 q0 93 -65.5 118.5t-153.5 25.5h-41v-299z" />
<glyph unicode="&#x412;" horiz-adv-x="1614" d="M72 1434h661q208 0 330.5 -8.5t228 -42t165 -108.5t59.5 -204q0 -82 -44.5 -154t-123.5 -114.5t-177 -42.5h-28v-19h45q89 0 177.5 -39t145 -118.5t56.5 -194.5q0 -138 -64 -218.5t-180 -116.5t-264.5 -45t-374.5 -9h-47h-565v262h67q56 0 70 19t14 63v746 q0 44 -13.5 62.5t-70.5 18.5h-67v263zM725 868h106q96 0 126 42.5t30 88.5q0 75 -53.5 99t-147.5 24h-61v-254zM725 311h104q59 0 115.5 23t56.5 106q0 60 -30 91.5t-72.5 41t-103.5 9.5h-70v-271z" />
<glyph unicode="&#x413;" horiz-adv-x="1274" d="M72 0v262h69q56 0 70 19t14 63v746q0 44 -13.5 62.5t-70.5 18.5h-69v263h1202v-514h-250q-2 46 -16 108q-11 50 -34 72t-95 22h-152v-776q0 -49 17 -66.5t67 -17.5h92v-262h-831z" />
<glyph unicode="&#x414;" horiz-adv-x="1784" d="M182 1434h1514v-263h-68q-58 0 -72 -18.5t-14 -62.5v-697q0 -32 5 -47.5t23 -25t58 -9.5h105v-628h-263l-28 221q-6 46 -19 65t-40 25t-85 6h-870q-48 0 -65 -13.5t-27 -68.5l-43 -235h-262v628q104 3 159 51t84 138q23 62 55 210.5t38 325.5v78q-2 35 -22 46t-112 11 h-51v263zM1040 311v811h-284q-2 -84 -8 -174q-17 -267 -43.5 -408.5t-61.5 -228.5h397z" />
<glyph unicode="&#x415;" horiz-adv-x="1446" d="M72 0v262h69q56 0 70 19t14 63v746q0 44 -12.5 62.5t-69.5 18.5h-71v263h1276v-461h-263q-7 50 -16 90q-9 37 -31.5 48t-97.5 11h-213v-239h328v-312h-328v-260h201q80 0 112.5 17t49.5 58.5t20 80.5h264l-12 -467h-1290z" />
<glyph unicode="&#x416;" horiz-adv-x="2320" d="M1378 901h41q40 0 61.5 16t43 60t69.5 164q24 62 53.5 117t74 103t110.5 78.5t160 30.5q47 0 105.5 -7.5t123.5 -26.5v-338q-73 0 -113 -34.5t-77 -96.5q-34 -54 -64 -89t-83.5 -64.5t-133.5 -43.5v-25q122 0 208 -63t114 -178q15 -57 32.5 -83t71.5 -26q23 0 74 13v-408 q-59 -22 -108 -28.5t-118 -6.5q-78 0 -135 14.5t-112 60t-106 131.5t-103 228q-32 91 -45 120.5t-47 50t-97 20.5v-242q0 -47 18.5 -66.5t73.5 -19.5h54v-262h-727v262h53q57 0 74.5 19.5t17.5 66.5v242q-64 0 -97 -20.5t-46 -50t-45 -120.5q-66 -184 -135 -278.5t-143 -125 t-179 -30.5q-69 0 -117.5 7t-107.5 28v408q51 -13 73 -13q54 0 72 26.5t33 82.5q20 79 65 133t110 81t146 27v25q-80 14 -133.5 43.5t-85 66t-61.5 87.5q-37 62 -77 96.5t-114 34.5v338q64 19 123.5 26.5t106.5 7.5q120 0 199.5 -51.5t121.5 -121t76 -156.5 q48 -120 69.5 -164t43 -60t61.5 -16h41v184q0 48 -17.5 67t-74.5 19h-53v263h727v-263h-54q-55 0 -73.5 -19t-18.5 -67v-184z" />
<glyph unicode="&#x417;" horiz-adv-x="1665" d="M786 596h-63v311h68q76 0 135 25.5t59 118.5q0 43 -37 75.5t-127 32.5q-52 0 -90 -10t-70 -55.5t-40 -137.5h-494q10 113 72.5 228.5t225.5 200.5t449 85q268 0 421.5 -58t208.5 -141t55 -173q0 -117 -84 -205t-250 -115v-14q61 -3 126.5 -23.5t118.5 -59t88 -104 t35 -155.5q0 -138 -82.5 -241.5t-243.5 -159.5t-380 -56q-229 0 -388 51t-251.5 137t-132.5 190.5t-43 225.5h520q1 -118 26 -181t73.5 -87.5t127.5 -24.5q118 0 152.5 53t34.5 105q0 96 -68.5 129t-151.5 33z" />
<glyph unicode="&#x418;" horiz-adv-x="1780" d="M72 1434h786v-263h-43q-56 0 -71 -19t-15 -62v-400h16l371 744h592v-263h-70q-58 0 -72 -18.5t-14 -62.5v-746q0 -44 14.5 -63t71.5 -19h70v-262h-786v262h43q59 0 72.5 19t13.5 63v363h-19l-360 -707h-600v262h69q53 0 69.5 15.5t16.5 66.5v746q0 52 -16.5 66.5 t-69.5 14.5h-69v263z" />
<glyph unicode="&#x419;" horiz-adv-x="1780" d="M72 1434h784v-263h-41q-56 0 -71 -19t-15 -62v-400h16l369 744h594v-263h-70q-52 0 -70 -17t-18 -64v-746q0 -47 19 -64.5t69 -17.5h70v-262h-788v262h43q52 0 70 17.5t18 64.5v363h-21l-358 -707h-600v262h67q50 0 69 16t19 66v746q0 49 -18.5 65t-69.5 16h-67v263z M401 1845h344q11 -46 48.5 -72t95.5 -26t96 26.5t47 71.5h344q-8 -92 -69.5 -167t-169 -118.5t-248.5 -43.5t-248.5 43t-170 119.5t-69.5 166.5z" />
<glyph unicode="&#x41a;" horiz-adv-x="1663" d="M719 901h43q42 0 64.5 16t42.5 59.5t69 166.5q31 81 75 152.5t124 123t202 51.5q112 0 224 -34v-338q-42 -1 -72 -18.5t-50.5 -42.5t-51.5 -70q-35 -54 -67 -91t-85.5 -65t-144.5 -41v-25q101 0 192 -46.5t129 -184.5q2 -5 11.5 -34t21 -46t29 -27t45.5 -10q31 0 71 11 v-408q-56 -21 -101 -28t-108 -7q-85 0 -145.5 15.5t-117.5 61.5t-108 132.5t-102 226.5q-32 90 -45 119t-46 50.5t-99 21.5v-244q0 -46 18 -66t72 -20h39v-262h-776v262h53q57 0 74.5 19.5t17.5 66.5v737q0 48 -17.5 67t-74.5 19h-53v263h780v-263h-43q-53 0 -71.5 -19.5 t-18.5 -66.5v-184z" />
<glyph unicode="&#x41b;" horiz-adv-x="1749" d="M160 1434h1517v-263h-59q-60 0 -79 -19t-19 -67v-735q0 -48 21 -68t77 -20h59v-262h-782v262h27q58 0 77 19t19 67v774h-254q-6 -244 -11 -344.5t-14 -202.5q-8 -125 -26.5 -226t-65 -188.5t-138.5 -141.5t-235 -54q-136 0 -243 47v406q105 -21 131 -21q86 0 126.5 69 t51 177t16.5 338v68q-2 58 -7.5 81t-26 32t-72.5 9h-90v263z" />
<glyph unicode="&#x41c;" horiz-adv-x="2122" d="M72 1434h688l289 -562h18l268 562h715v-263h-68q-56 0 -71 -21.5t-15 -59.5v-746q0 -39 15 -60.5t71 -21.5h68v-262h-784v262h45q55 0 69.5 21.5t14.5 60.5v487h-13l-290 -608h-228l-313 608l-14 3v-490q0 -39 14 -60.5t70 -21.5h45v-262h-594v262h69q55 0 69.5 21.5 t14.5 60.5v746q0 38 -14.5 59.5t-69.5 21.5h-69v263z" />
<glyph unicode="&#x41d;" horiz-adv-x="1804" d="M72 0v262h67q51 0 68.5 17t17.5 65v746q0 48 -17 64.5t-69 16.5h-67v263h749v-263h-12q-53 0 -67.5 -22t-14.5 -59v-177h350v177q0 48 -17 64.5t-69 16.5h-12v263h754v-263h-70q-56 0 -70 -21.5t-14 -59.5v-746q0 -39 14 -60.5t70 -21.5h70v-262h-754v262h12 q51 0 68.5 17t17.5 65v258h-350v-258q0 -39 15 -60.5t71 -21.5h12v-262h-753z" />
<glyph unicode="&#x41e;" horiz-adv-x="1659" d="M829 1470q92 0 197.5 -19.5t220.5 -77.5t205 -165q25 -28 63.5 -92t72.5 -168t34 -231q0 -121 -33 -254.5t-127 -245.5q-69 -84 -172.5 -141t-223 -84t-237.5 -27t-237 27t-221.5 84.5t-171.5 140.5q-162 193 -162 500q0 128 40.5 255t131.5 236q128 153 298.5 207.5 t321.5 54.5zM829 276q113 0 150 95.5t37 275.5v137q0 115 -12.5 194.5t-53.5 130t-121 50.5q-119 0 -152.5 -102.5t-33.5 -270.5v-139q0 -114 14 -195t54.5 -128.5t117.5 -47.5z" />
<glyph unicode="&#x41f;" horiz-adv-x="1800" d="M1729 0h-752v262h12q55 0 69.5 21.5t14.5 60.5v778h-346v-778q0 -47 18 -64.5t68 -17.5h12v-262h-753v262h67q58 0 72 21.5t14 60.5v746q0 38 -14 59.5t-72 21.5h-67v263h1657v-263h-68q-55 0 -68.5 -16.5t-15.5 -56.5q0 -17 -0.5 -25.5t-1.5 -19.5v-672q1 -10 1.5 -19.5 t0.5 -25.5q2 -40 16 -57t68 -17h68v-262z" />
<glyph unicode="&#x420;" horiz-adv-x="1544" d="M72 0v262h67q58 0 72 21.5t14 60.5v746q0 38 -14 59.5t-72 21.5h-67v263h620q196 0 345.5 -20t257 -72t166.5 -147.5t59 -244.5q0 -143 -65 -235t-162.5 -137.5t-196 -60.5t-193.5 -15l-176 2v-160q0 -39 15 -60.5t71 -21.5h92v-262h-833zM727 1124v-311 q111 0 173.5 34.5t62.5 129.5q0 88 -61.5 117.5t-174.5 29.5z" />
<glyph unicode="&#x421;" horiz-adv-x="1665" d="M1016 573h612q-2 -121 -57 -230t-160.5 -195t-255 -134.5t-332.5 -48.5q-181 0 -309 44.5t-200 100t-117 109.5q-160 197 -160 498q0 129 39.5 254t130.5 235q72 88 170 147t209.5 88t226.5 29q207 0 383.5 -78.5t280.5 -213t110 -293.5h-573q0 105 -38.5 189.5 t-150.5 84.5q-53 0 -90 -19t-64.5 -100.5t-27.5 -246.5v-146q0 -167 33.5 -269t148.5 -102q76 0 133.5 62.5t57.5 234.5z" />
<glyph unicode="&#x422;" horiz-adv-x="1587" d="M365 0v262h92q50 0 68 17.5t18 64.5v778h-86q-80 0 -100.5 -13.5t-28.5 -55.5l-27 -121h-264l14 502h1485l14 -502h-264l-26 121q-9 44 -29.5 56.5t-100.5 12.5h-86v-778q0 -39 14 -60.5t70 -21.5h93v-262h-856z" />
<glyph unicode="&#x423;" horiz-adv-x="1688" d="M1036 1434h615v-263q-66 -2 -94 -7t-43.5 -20.5t-33 -55.5t-36.5 -84l-180 -414q-96 -220 -174.5 -344.5t-154 -185.5t-150.5 -78t-191 -17q-66 0 -133 7t-160 28v395q112 -61 225 -61q98 0 127 55l-393 635q-18 32 -38 66t-52 57.5t-84 23.5h-49v263h821v-263h-27 q-55 0 -55 -36q0 -19 21 -54l170 -274h18l105 242q30 70 30 88q0 12 -14 23t-51 11h-19v263z" />
<glyph unicode="&#x424;" horiz-adv-x="1991" d="M616 1493h758v-262l-69 -2q-38 0 -63 -12t-25 -56h137q121 0 254.5 -29t239.5 -123t106 -266q0 -187 -164.5 -300t-572.5 -113v-25q0 -28 19 -35.5t52 -7.5h86v-262h-758v262h86q34 0 53 7.5t19 35.5v25q-407 0 -572 113.5t-165 299.5q0 134 65.5 219.5t162 128t191 56.5 t181.5 14h137q0 44 -24.5 56t-63.5 12l-70 2v262zM774 909h-65q-85 0 -134 -45t-49 -135q0 -49 33 -98t143 -49h72v327zM1217 909v-327h71q109 0 142.5 49.5t33.5 97.5q0 91 -48.5 135.5t-133.5 44.5h-65z" />
<glyph unicode="&#x425;" horiz-adv-x="1845" d="M887 1434v-263h-27q-35 0 -35 -30q0 -9 2.5 -14.5t8 -12.5t10.5 -12l92 -121h23l94 121q28 37 28 47q0 22 -39 22h-30v263h665v-263h-57q-56 0 -95 -29.5t-110 -119.5l-178 -227l295 -394q5 -6 9.5 -11t8.5 -11q7 -6 35 -43q33 -39 56.5 -56.5t62.5 -17.5h68v-262h-850 v262q67 3 67 35q0 18 -35 65l-86 117h-22l-105 -131q-22 -28 -22 -55t70 -31v-262h-717v262h65q60 0 101 26t114 120l207 266l-278 373q-8 11 -20.5 26t-29.5 37q-20 31 -42.5 46t-67.5 15h-51v263h815z" />
<glyph unicode="&#x426;" horiz-adv-x="1839" d="M72 1434h753v-263h-18q-45 0 -62.5 -17t-17.5 -64v-779h346v779q0 34 -12.5 57.5t-59.5 23.5h-24v263h752v-263h-68q-54 0 -68 -17t-16 -54q0 -23 -0.5 -29t-1.5 -14v-631q1 -8 1.5 -15t0.5 -30q2 -40 15.5 -55t68.5 -15h106v-647h-264l-24 156q-17 106 -23 130.5t-31 37 t-92 12.5h-1261v262h67q58 0 72 21.5t14 60.5v746q0 38 -14 59.5t-72 21.5h-67v263z" />
<glyph unicode="&#x427;" horiz-adv-x="1741" d="M854 0v262h96q55 0 69.5 21.5t14.5 60.5v209q-73 -12 -174 -12h-115q-215 1 -335.5 49.5t-162.5 124t-42 170.5v172q0 10 -0.5 19.5t-1.5 23.5q-2 38 -15 54.5t-69 16.5h-66v263h758v-263h-20q-57 0 -70.5 -17t-13.5 -54v-51q0 -73 14 -114t58 -61t126 -20q31 0 129 8 v228q0 36 -12 58.5t-55 22.5h-25v263h748v-263h-68q-54 0 -68 -17t-16 -54q0 -23 -0.5 -29t-1.5 -14v-680q1 -8 1.5 -15t0.5 -28q2 -37 16 -54.5t68 -17.5h68v-262h-836z" />
<glyph unicode="&#x428;" horiz-adv-x="2509" d="M1694 1434h743v-263h-70q-38 0 -56.5 -12t-22.5 -28t-4 -41v-746q0 -25 4 -41.5t22 -28.5t57 -12h70v-262h-2365v262h69q49 0 66.5 17t17.5 65v746q0 48 -17 64.5t-67 16.5h-69v263h743v-263h-10q-44 0 -61 -17t-17 -64v-779h277v779q0 81 -68 81h-21v263h678v-263h-18 q-46 0 -58 -22.5t-12 -58.5v-779h277v779q0 42 -14 61.5t-54 19.5h-20v263z" />
<glyph unicode="&#x429;" horiz-adv-x="2542" d="M1694 1434h743v-263h-70q-52 0 -67.5 -21t-15.5 -60v-721q0 -29 14.5 -43.5t66.5 -14.5h105v-647h-260l-19 113q-9 70 -16.5 122.5t-27.5 76.5t-70 24h-2005v262h69q49 0 66.5 17t17.5 65v746q0 48 -17 64.5t-67 16.5h-69v263h743v-263h-10q-44 0 -61 -17t-17 -64v-779 h277v779q0 81 -68 81h-21v263h678v-263h-16q-72 0 -72 -81v-779h277v779q0 42 -14 61.5t-54 19.5h-20v263z" />
<glyph unicode="&#x42a;" horiz-adv-x="1913" d="M344 0v262h45q72 0 90.5 17.5t18.5 64.5v778h-54q-44 0 -70.5 -4t-38.5 -14.5t-15.5 -23t-14.5 -64.5q-2 -31 -16 -84h-256v502h1145v-263h-93q-51 0 -68.5 -17t-17.5 -64v-175h213q646 0 646 -481q0 -152 -86 -242.5t-214.5 -131t-250.5 -50.5t-258 -10h-705zM999 604 v-307h72q203 0 203 154q0 155 -213 155z" />
<glyph unicode="&#x42b;" horiz-adv-x="2517" d="M72 2v262h67q58 0 72 21.5t14 60.5v760q0 68 -84 68h-69v262h831v-262h-90q-56 0 -71 -21.5t-15 -60.5v-174h213q639 0 639 -482q0 -151 -85.5 -242t-212.5 -131.5t-248.5 -50.5t-258.5 -10h-702zM727 606v-307h72q202 0 202 154q0 80 -47.5 116.5t-165.5 36.5h-61z M1636 2v262h70q55 0 69.5 21.5t14.5 60.5v746q0 39 -14.5 60.5t-69.5 21.5h-70v262h809v-262h-67q-50 0 -68 -17.5t-18 -64.5v-746q0 -47 18 -64.5t68 -17.5h67v-262h-809z" />
<glyph unicode="&#x42c;" horiz-adv-x="1622" d="M72 0v262h67q58 0 72 21.5t14 60.5v750q0 39 -15 58t-69 19h-69v263h831v-263h-90q-56 0 -71 -21.5t-15 -59.5v-175h213q645 0 645 -481q0 -152 -86.5 -242t-216.5 -131t-252 -51t-256 -10h-702zM727 604v-307h72q202 0 202 154q0 80 -47.5 116.5t-165.5 36.5h-61z" />
<glyph unicode="&#x42d;" horiz-adv-x="1659" d="M37 573h532q7 -297 240 -297q123 0 165 83.5t42 166.5v47h-342v306h342q0 83 -17 144.5t-62 98.5t-126 37q-106 0 -160 -68.5t-59 -160.5h-535q14 175 104.5 286.5t215 165.5t245 71t234.5 17q93 0 203 -23t224 -84t196 -167q86 -110 114.5 -233t28.5 -246 q0 -141 -44.5 -272t-127.5 -228t-232.5 -174.5t-394.5 -77.5q-284 0 -456.5 95.5t-244.5 232t-85 280.5z" />
<glyph unicode="&#x42e;" horiz-adv-x="2533" d="M727 913h211q37 158 121 266.5t193 172t224.5 91t227.5 27.5q79 0 156.5 -12t164 -43t165 -82.5t137.5 -124.5q72 -86 121 -210.5t49 -280.5q0 -117 -34.5 -253.5t-127.5 -246.5q-55 -64 -126 -111.5t-155.5 -79.5t-170.5 -46.5t-179 -14.5q-262 0 -433 94.5t-252.5 239 t-96.5 303.5h-195v-225q1 -8 1.5 -15t0.5 -28q2 -37 16 -54.5t68 -17.5h70v-262h-811v262h67q51 0 68.5 17t17.5 65v746q0 48 -17 64.5t-69 16.5h-67v263h811v-263h-70q-54 0 -68 -17t-16 -54q0 -23 -0.5 -29t-1.5 -14v-144zM1704 276q113 0 149.5 94.5t36.5 276.5v137 q0 106 -10.5 185t-51.5 134.5t-124 55.5q-76 0 -117.5 -48t-55 -129t-13.5 -196v-139q0 -114 13.5 -194.5t55 -128.5t117.5 -48z" />
<glyph unicode="&#x42f;" horiz-adv-x="1630" d="M801 0v262h20q49 0 66.5 17t17.5 65v209h-18q-50 0 -82 -19t-52.5 -52.5t-37.5 -84t-33 -96.5q-37 -107 -78.5 -176.5t-125.5 -114.5t-222 -45q-110 0 -184 33v418q52 -13 92 -13t56 19t28 57q60 185 342 197v18q-141 1 -244.5 46.5t-160 126.5t-56.5 184q0 169 117 254 t272 107t356 22h58h627v-263h-68q-55 0 -69.5 -17.5t-14.5 -63.5v-746q0 -45 15 -63.5t69 -18.5h68v-262h-758zM905 1135h-45q-90 0 -148.5 -26.5t-58.5 -115.5q0 -80 55.5 -116.5t141.5 -36.5l55 2v293z" />
<glyph unicode="&#x430;" horiz-adv-x="1434" d="M578 756h-428q0 155 103 234t232 98.5t279 19.5q180 0 284.5 -36.5t152 -96.5t58.5 -122.5t11 -158.5v-352q0 -34 10 -56t51 -22q7 0 31 4v-293h-201q-110 0 -174.5 26t-89.5 93h-23q-62 -46 -129 -72.5t-135.5 -36.5t-144.5 -10q-204 0 -298.5 93t-94.5 235 q0 147 91 226.5t243 107t356 27.5h74q-5 89 -9 115t-27.5 44.5t-76.5 18.5q-82 0 -112 -29t-33 -57zM836 334v125q-154 0 -207.5 -39.5t-53.5 -83.5q0 -32 27.5 -63t102.5 -31q64 0 97.5 29t33.5 63z" />
<glyph unicode="&#x431;" horiz-adv-x="1440" d="M1065 1638h276q17 -66 17 -114q0 -113 -70.5 -176.5t-178.5 -90t-278 -45.5q-47 -5 -139 -26.5t-185 -77t-114 -145.5l19 -13q26 47 109 102.5t255 55.5q161 0 296.5 -62.5t215.5 -187t80 -295.5q0 -169 -73.5 -302.5t-218 -209.5t-349.5 -76q-250 0 -397 97t-202.5 248 t-55.5 331q0 268 91.5 454t280 300.5t482.5 175.5q58 12 82.5 20t56.5 37zM725 842q-67 0 -98 -34t-39 -90t-8 -165q0 -105 7 -167t38 -103t96 -41q66 0 97.5 41.5t38.5 103.5t7 166t-8 164t-38 92.5t-93 32.5z" />
<glyph unicode="&#x432;" horiz-adv-x="1425" d="M96 1085h645q142 0 232 -6.5t168 -32t126 -84.5t48 -159q0 -116 -82.5 -160.5t-241.5 -64.5v-15q114 -8 192.5 -33.5t124.5 -80.5t46 -146q0 -103 -51 -166t-137 -93t-177 -37t-201 -7h-692v215h45q42 0 58 13.5t16 27.5v571q0 28 -29.5 34t-89.5 9v215zM649 655h51 q89 0 134 21t45 90q0 50 -33.5 67t-100.5 17h-96v-195zM649 457v-207h58q46 0 83 5.5t66 29t29 73.5q0 63 -52 81t-145 18h-39z" />
<glyph unicode="&#x433;" horiz-adv-x="1161" d="M96 1085h1018v-438h-203l-18 78q-5 24 -8.5 45t-12.5 31t-29.5 14t-66.5 4h-127v-538q0 -39 18 -52.5t58 -13.5h70v-215h-699v215h45q74 0 74 41v571q0 16 -16 29.5t-58 13.5h-45v215z" />
<glyph unicode="&#x434;" horiz-adv-x="1573" d="M1477 1085v-215h-56q-37 0 -56 -12t-19 -53v-471q0 -46 18.5 -57t56.5 -11h56v-545h-201l-45 173q-17 69 -39 87.5t-74 18.5h-657q-68 0 -99 -14.5t-45 -71.5l-45 -193h-200v545q78 0 129.5 29.5t91.5 95.5q46 74 70.5 180t31.5 220v34q-3 28 -24.5 36.5t-89.5 8.5h-52 v215h1248zM911 266v553h-225q-15 -194 -38 -310.5t-83 -242.5h346z" />
<glyph unicode="&#x435;" horiz-adv-x="1423" d="M868 403h484q-6 -47 -29.5 -108.5t-87 -133.5t-188 -125.5t-318.5 -60.5q-205 0 -331.5 60t-192.5 133q-133 145 -133 373q0 67 18.5 139t49.5 129t73 102q46 50 117.5 94.5t171 73.5t227.5 29q157 0 277 -51t195 -137.5t111 -195t36 -230.5h-775q0 -17 -0.5 -26.5 t-1.5 -21.5q0 -101 33 -152.5t119 -51.5q74 0 106.5 48.5t38.5 112.5zM584 705h282q-2 159 -141 159q-70 0 -105.5 -49t-35.5 -110z" />
<glyph unicode="&#x436;" horiz-adv-x="2089" d="M1262 684h34q28 0 42.5 5t28 20t36.5 58.5t51 106.5q34 73 66 117t98.5 78.5t179.5 38.5h64q64 -3 155 -18v-263q-55 -1 -88 -25t-71 -73q-51 -60 -102.5 -95t-149.5 -50v-21q208 0 266 -174q13 -40 28 -59t58 -19q31 0 59 11v-314q-89 -33 -196 -33q-112 0 -181 32.5 t-117 102.5t-98 193q-33 85 -57.5 113t-69.5 28h-36v-163q0 -41 17.5 -53.5t57.5 -12.5h33v-215h-651v215h33q40 0 57.5 11.5t17.5 54.5v163h-36q-31 0 -50.5 -12t-36 -40t-40.5 -89q-50 -123 -98 -193t-117 -102.5t-181 -32.5q-107 0 -196 33v314q31 -11 59 -11 q43 0 57.5 18.5t28.5 59.5q58 174 266 174v21q-96 15 -148.5 50t-103.5 95q-37 48 -70.5 72.5t-88.5 25.5v263q91 15 155 18h64q158 -5 227.5 -67.5t116.5 -166.5q42 -90 56.5 -117.5t30.5 -45.5t29.5 -22.5t41.5 -4.5h34v121q0 42 -19 53.5t-56 11.5h-33v215h651v-215h-33 q-37 0 -56 -12t-19 -53v-121z" />
<glyph unicode="&#x437;" horiz-adv-x="1360" d="M565 729h-487q0 102 61.5 188.5t192.5 139.5t327 53q19 0 31 -0.5t27 -1.5h43q183 0 298 -43.5t160.5 -107.5t45.5 -130q0 -84 -64.5 -153t-238.5 -92v-19q82 0 146 -23t103.5 -60.5t58.5 -84.5t19 -98q0 -47 -24.5 -101.5t-88.5 -105.5t-178 -83t-288 -32 q-340 0 -484.5 121.5t-152.5 278.5h485q0 -86 39.5 -109.5t93.5 -23.5q33 0 63.5 19t30.5 71q0 67 -40.5 88.5t-127.5 21.5h-61v228h88q73 0 113.5 19t40.5 79q0 37 -29.5 55.5t-79.5 18.5q-105 0 -123 -113z" />
<glyph unicode="&#x438;" horiz-adv-x="1581" d="M96 1085h641v-215h-20q-36 0 -54 -11t-18 -52v-242h8l316 520h516v-215h-45q-33 0 -52.5 -11t-19.5 -54v-524q0 -42 19.5 -54t54.5 -12h43v-215h-643v215h18q37 0 55.5 11.5t18.5 54.5v251h-8l-326 -532h-504v215h43q72 0 72 41v571q0 21 -21 32t-51 11h-43v215z" />
<glyph unicode="&#x439;" horiz-adv-x="1581" d="M96 1085h641v-215h-20q-33 0 -52.5 -11t-19.5 -54v-240h8l316 520h516v-215h-45q-33 0 -52.5 -11t-19.5 -54v-524q0 -42 19.5 -54t54.5 -12h43v-215h-643v215h18q37 0 55.5 11.5t18.5 54.5v251h-8l-326 -532h-504v215h43q72 0 72 41v571q0 21 -21 32t-51 11h-43v215z M324 1550h354q10 -127 158 -127q145 0 155 127h355q0 -88 -49 -155t-127 -111t-168 -66t-168 -22q-76 0 -165.5 21.5t-168.5 66.5t-127.5 112.5t-48.5 153.5z" />
<glyph unicode="&#x43a;" horiz-adv-x="1477" d="M649 698h35q47 0 73.5 28t86.5 157q47 100 118.5 162.5t223.5 62.5q107 0 196 -18v-263h-45q-34 0 -60 -27t-54 -69q-39 -61 -85.5 -96.5t-144.5 -50.5v-21q208 0 267 -174q13 -40 27 -59t50 -19q35 0 68 11v-314q-93 -33 -199 -33q-105 0 -176.5 32.5t-120.5 99.5 t-96 188q-25 68 -49 102.5t-78 34.5h-37v-151q0 -36 17 -51t59 -15h33v-215h-662v215h43q45 0 60.5 14.5t15.5 51.5v524q0 43 -20.5 54t-55.5 11h-43v215h662v-215h-33q-36 0 -56 -10.5t-20 -54.5v-107z" />
<glyph unicode="&#x43b;" horiz-adv-x="1499" d="M172 1085h1231v-215h-55q-43 0 -54.5 -18.5t-11.5 -46.5v-524q0 -41 18.5 -53.5t57.5 -12.5h45v-215h-651v215h20q45 0 60.5 14.5t15.5 51.5v538h-199q-1 -32 -2.5 -58t-2.5 -46t-1.5 -38t-1.5 -36q-3 -180 -18 -295q-22 -181 -108.5 -276t-252.5 -95q-97 0 -190 33v314 q43 -8 49 -9q27 -8 61 -8q62 0 93 52t40 129.5t9 183.5v108q0 44 -8.5 64t-24 24t-49.5 4h-70v215z" />
<glyph unicode="&#x43c;" horiz-adv-x="1866" d="M96 1085h563l238 -501h8l228 501h636v-215h-40q-76 0 -76 -65v-524q0 -32 13 -49t63 -17h40v-215h-643v215h19q49 0 61.5 16.5t12.5 49.5v354h-5l-221 -490h-258l-231 490h-23v-354q0 -43 20 -54.5t58 -11.5h16v-215h-479v215h45q35 0 54.5 12t19.5 54v524q0 41 -19 53 t-55 12h-45v215z" />
<glyph unicode="&#x43d;" horiz-adv-x="1579" d="M96 1085h639v-215h-10q-34 0 -55 -11t-21 -54v-121h281v121q0 32 -14.5 48.5t-61.5 16.5h-10v215h639v-215h-43q-43 0 -59.5 -11.5t-16.5 -53.5v-522q0 -68 76 -68h43v-215h-639v215h8q78 0 78 68v135h-281v-135q0 -44 22.5 -56t55.5 -12h8v-215h-639v215h45 q46 0 60 14.5t14 51.5v546q0 16 -16 29.5t-58 13.5h-45v215z" />
<glyph unicode="&#x43e;" horiz-adv-x="1458" d="M729 1108q330 0 514 -197q141 -155 141 -368q0 -111 -35.5 -210t-97.5 -167q-79 -85 -214.5 -138t-307.5 -53q-169 0 -306.5 53t-215.5 138q-62 68 -97.5 167t-35.5 210q0 218 141 368q70 75 192.5 136t321.5 61zM729 842q-92 0 -121.5 -63.5t-29.5 -188.5v-94 q0 -105 18.5 -161.5t50 -74.5t82.5 -18t83 18t50.5 73.5t18.5 162.5v98q0 124 -29.5 186t-122.5 62z" />
<glyph unicode="&#x43f;" horiz-adv-x="1579" d="M96 0v215h45q53 0 65.5 16.5t12.5 49.5v546q0 18 -20 30.5t-58 12.5h-45v215h1387v-215h-45q-38 0 -58 -10.5t-20 -54.5v-524q0 -36 16.5 -51t61.5 -15h45v-215h-647v215h12q53 0 65.5 16.5t12.5 49.5v538h-273v-538q0 -33 13 -49.5t65 -16.5h12v-215h-647z" />
<glyph unicode="&#x440;" horiz-adv-x="1526" d="M96 1085h473l33 -100h12q102 66 179.5 94.5t189.5 28.5q125 0 215 -45.5t144 -117t81.5 -154.5t30.5 -158v-84q-5 -95 -37.5 -216t-154 -239.5t-357.5 -118.5q-90 0 -145 15.5t-101 52.5h-10v-190q0 -32 13 -48.5t63 -17.5l94 -2v-215h-723v215h43q47 0 61.5 13.5 t14.5 51.5v955q0 43 -20.5 54t-55.5 11h-43v215zM649 723v-426q49 -55 133 -55q57 0 92.5 24t51.5 63.5t20 83.5t4 113v45q0 133 -25 202t-114 69q-42 0 -90 -27t-72 -92z" />
<glyph unicode="&#x441;" horiz-adv-x="1434" d="M872 434h490q-3 -85 -43 -166t-118 -147t-198 -106t-278 -40q-37 0 -94.5 5.5t-131.5 23t-155 58.5t-139 104q-55 59 -85.5 134.5t-39 135t-8.5 107.5q0 72 27 172.5t114 195.5q106 116 244.5 156.5t263.5 40.5q156 0 273.5 -40t190.5 -104t113 -142.5t50 -153.5h-478 q-1 102 -44 138t-101 36q-88 0 -119 -64.5t-31 -187.5v-94q0 -104 20 -161t51.5 -75t78.5 -18q147 0 147 192z" />
<glyph unicode="&#x442;" horiz-adv-x="1368" d="M47 1085h1274v-417h-211q-8 92 -18 121.5t-60 29.5h-131v-536q0 -41 18.5 -53.5t57.5 -12.5h70v-215h-725v215h69q41 0 58.5 12.5t17.5 53.5v536h-131q-26 0 -41.5 -10.5t-22 -30.5t-9.5 -51t-5 -59h-211v417z" />
<glyph unicode="&#x443;" horiz-adv-x="1485" d="M0 1085h772v-215h-84q-53 0 -53 -28q0 -12 8 -25l197 -373h26l138 353q14 42 14 47q0 26 -66 26h-45v215h578v-215h-53q-36 0 -54.5 -17.5t-29 -45t-25.5 -68.5l-446 -1015q-41 -93 -129 -161.5t-238 -68.5q-81 0 -172 37v311q60 -20 108 -20q31 0 73 35t42 141l-422 795 q-21 43 -42 60t-68 17h-29v215z" />
<glyph unicode="&#x444;" horiz-adv-x="2060" d="M692 1602h553v-517q85 25 176 25q71 0 139.5 -15.5t127.5 -44t114 -73.5q42 -37 82.5 -89.5t72.5 -141.5t32 -203q0 -165 -63 -278t-156 -175.5t-189 -88.5t-168 -26q-78 0 -166 25v-150q0 -36 14.5 -50.5t59.5 -14.5h86v-215h-754v215h86q46 0 60 14t14 51v150 q-26 -8 -73 -16.5t-93 -8.5q-71 0 -166 25.5t-189 88.5t-157 176t-63 278q0 167 58.5 270t127.5 164q55 46 115 74.5t128 43.5t138 15q92 0 176 -25v236q0 42 -18.5 53.5t-57.5 11.5h-47v216zM823 248v594q-65 16 -98 16q-76 0 -112 -43t-44 -105t-8 -163q0 -330 158 -330 q46 0 104 31zM1237 842v-594q60 -31 104 -31q158 0 158 330q0 101 -8 163t-44 105t-112 43q-32 0 -98 -16z" />
<glyph unicode="&#x445;" horiz-adv-x="1386" d="M0 1085h674v-215h-39q-19 0 -19 -12q0 -7 9 -16l98 -119h2l88 125q4 4 4 6v8q-2 8 -14 8h-33v215h555v-215h-22q-53 0 -91 -10q-38 -9 -69 -55l-162 -232l238 -272q4 -5 11 -12l21 -21q56 -53 121 -53h14v-215h-684v215h37q29 0 29 14q0 9 -12 25l-111 127l-100 -141 q-6 -12 -6 -13q0 -12 24 -12h41v-215h-604v215h49q77 0 108 20.5t76 86.5l144 206l-221 271q-30 41 -49 56t-66 15h-41v215z" />
<glyph unicode="&#x446;" horiz-adv-x="1597" d="M96 1085h639v-215h-20q-66 0 -66 -49v-555h277v555q0 31 -23.5 40t-50.5 9h-12v215h641v-215h-45q-23 0 -40 -4.5t-26.5 -20t-9.5 -42.5v-469q0 -38 15.5 -52t60.5 -14h65v-547h-209l-37 173q-1 4 -12 45q-9 38 -20.5 49.5t-53.5 11.5h-1073v215h45q28 0 51 9.5t23 31.5 v549q0 32 -14.5 48.5t-61.5 16.5h-43v215z" />
<glyph unicode="&#x447;" horiz-adv-x="1536" d="M741 0v215h66q42 0 59 14t17 52v96q-85 -10 -234 -15h-86q-106 4 -173.5 23t-103 41t-46.5 35q-43 45 -56.5 109.5t-13.5 158.5v64q0 50 -19.5 63.5t-58.5 13.5h-45v215h637v-215h-14q-66 0 -66 -65v-76q0 -44 16 -65.5t47 -28t91 -6.5q52 0 127 10v166q0 38 -19 51.5 t-61 13.5v215h635v-215h-45q-37 0 -56.5 -11.5t-19.5 -53.5v-524q0 -41 18.5 -53.5t57.5 -12.5h45v-215h-699z" />
<glyph unicode="&#x448;" horiz-adv-x="2288" d="M96 1085h639v-215h-10q-32 0 -55 -12t-23 -55v-535h279v537q0 43 -19 54t-53 11h-12v215h604v-215h-10q-36 0 -56 -12t-20 -55v-535h278v537q0 43 -20.5 54t-52.5 11h-13v215h639v-215h-43q-34 0 -54.5 -11t-20.5 -54v-524q0 -37 15 -51.5t60 -14.5h43v-215h-2095v215h43 q46 0 60 15.5t14 50.5v524q0 41 -19 53t-55 12h-43v215z" />
<glyph unicode="&#x449;" horiz-adv-x="2288" d="M96 1085h639v-215h-10q-32 0 -55 -12t-23 -55v-535h279v537q0 43 -19 54t-53 11h-12v215h604v-215h-10q-36 0 -56 -12t-20 -55v-535h278v537q0 43 -20.5 54t-52.5 11h-13v215h639v-215h-43q-34 0 -54.5 -11t-20.5 -54v-471q0 -37 15 -51.5t60 -14.5h43v-571h-211l-36 172 q-6 38 -10 65.5t-20.5 46.5t-55.5 19h-1762v215h43q46 0 60 15.5t14 50.5v524q0 41 -19 53t-55 12h-43v215z" />
<glyph unicode="&#x44a;" horiz-adv-x="1602" d="M291 0v215h43q44 0 60 15t16 46v543h-43q-53 0 -71.5 -15.5t-22.5 -39t-9 -53.5l-16 -49h-215l12 423h920v-215h-45q-37 0 -56.5 -11.5t-19.5 -53.5v-96h157q101 0 181.5 -9t160.5 -41.5t133.5 -106.5t53.5 -192q0 -124 -59.5 -198.5t-157.5 -108.5t-210 -43.5t-261 -9.5 h-551zM844 260h37q94 0 132 33.5t38 79.5q0 29 -14.5 54t-53.5 41.5t-102 16.5h-37v-225z" />
<glyph unicode="&#x44b;" horiz-adv-x="2161" d="M96 0v215h45q74 0 74 41v571q0 16 -16 29.5t-58 13.5h-45v215h672v-215h-45q-33 0 -53.5 -11t-20.5 -54v-96h150q136 0 249 -19.5t200 -96.5t87 -233q0 -124 -59 -198.5t-157 -108.5t-209.5 -43.5t-260.5 -9.5h-553zM649 260h39q94 0 132 33.5t38 79.5q0 29 -14.5 54 t-53.5 41.5t-102 16.5h-39v-225zM1401 0v215h33q44 0 59.5 14.5t15.5 51.5v524q0 43 -20.5 54t-54.5 11h-43v215h673v-215h-45q-46 0 -60.5 -16.5t-14.5 -48.5v-524q0 -32 13 -49t62 -17h45v-215h-663z" />
<glyph unicode="&#x44c;" horiz-adv-x="1409" d="M98 0v215h45q74 0 74 41v571q0 16 -16 29.5t-58 13.5h-45v215h672v-215h-45q-74 0 -74 -43v-118h197q489 0 489 -349q0 -124 -59 -198.5t-157.5 -108.5t-210.5 -43.5t-261 -9.5h-551zM651 260h37q94 0 132 33.5t38 79.5q0 29 -14.5 54t-53.5 41.5t-102 16.5h-37v-225z " />
<glyph unicode="&#x44d;" horiz-adv-x="1423" d="M72 412h479q0 -170 151 -170q48 0 97 38t49 166h-242v236h242q-4 82 -42.5 121t-105.5 39q-46 0 -90 -24.5t-51 -90.5h-465q22 117 105 204t212.5 132t293.5 45q70 0 158 -13t182.5 -56t166.5 -126q31 -34 63 -87.5t54.5 -126t22.5 -156.5q0 -130 -38 -222.5t-95 -154.5 q-26 -29 -84.5 -72t-169.5 -81t-263 -38q-220 0 -362.5 64t-205 164t-62.5 209z" />
<glyph unicode="&#x44e;" horiz-adv-x="2175" d="M651 686h133q52 183 171 276.5t240 119.5t228 26q90 0 171 -11t173 -55.5t170 -130.5q79 -86 110.5 -179.5t31.5 -188.5q0 -128 -33.5 -215.5t-99.5 -159.5q-77 -85 -198 -139t-325 -54q-122 0 -250.5 30t-242.5 129t-154 286h-125v-139q0 -41 18.5 -53.5t57.5 -12.5h12 v-215h-641v215h45q74 0 74 41v571q0 16 -16 29.5t-58 13.5h-45v215h641v-215h-12q-37 0 -56.5 -11.5t-19.5 -53.5v-119zM1423 842q-92 0 -121.5 -63.5t-29.5 -188.5v-94q0 -105 18.5 -161.5t50 -74.5t82.5 -18t83 18t50.5 73.5t18.5 162.5v98q0 124 -29.5 186t-122.5 62z " />
<glyph unicode="&#x44f;" horiz-adv-x="1470" d="M821 416h-26q-49 0 -67.5 -27t-47.5 -100q-41 -108 -82.5 -173t-114.5 -103t-190 -38q-106 0 -197 33v314q30 -11 70 -11q38 0 49.5 14.5t24.5 49.5q21 62 84 101.5t184 39.5v14q-19 -2 -51 -2q-66 0 -126.5 17.5t-108 53t-73.5 84.5t-26 114q0 130 97 194t214.5 79 t251.5 15h688v-215h-43q-43 0 -59.5 -13.5t-16.5 -51.5v-524q0 -37 16 -51.5t60 -14.5h43v-215h-639v215h10q76 0 76 41v160zM821 639v211h-82q-125 0 -125 -105q0 -57 32 -81.5t93 -24.5h82z" />
<glyph unicode="&#x2000;" horiz-adv-x="985" />
<glyph unicode="&#x2001;" horiz-adv-x="1970" />
<glyph unicode="&#x2002;" horiz-adv-x="985" />
<glyph unicode="&#x2003;" horiz-adv-x="1970" />
<glyph unicode="&#x2004;" horiz-adv-x="656" />
<glyph unicode="&#x2005;" horiz-adv-x="492" />
<glyph unicode="&#x2006;" horiz-adv-x="328" />
<glyph unicode="&#x2007;" horiz-adv-x="328" />
<glyph unicode="&#x2008;" horiz-adv-x="246" />
<glyph unicode="&#x2009;" horiz-adv-x="394" />
<glyph unicode="&#x200a;" horiz-adv-x="109" />
<glyph unicode="&#x2010;" horiz-adv-x="1098" d="M119 412v311h860v-311h-860z" />
<glyph unicode="&#x2011;" horiz-adv-x="1098" d="M119 412v311h860v-311h-860z" />
<glyph unicode="&#x2012;" horiz-adv-x="1098" d="M119 412v311h860v-311h-860z" />
<glyph unicode="&#x2013;" horiz-adv-x="1325" d="M119 829h1087v-264h-1087v264z" />
<glyph unicode="&#x2014;" horiz-adv-x="1921" d="M119 432v252h1683v-252h-1683z" />
<glyph unicode="&#x2018;" d="M418 1042v-10q103 -11 165 -83.5t62 -164.5q0 -63 -30.5 -120.5t-87.5 -93t-132 -35.5q-76 0 -139.5 38t-100 114.5t-36.5 180.5t43 207.5t114.5 200.5t165.5 194l170 -127q-48 -65 -77.5 -106t-59 -88.5t-57.5 -106.5z" />
<glyph unicode="&#x2019;" d="M346 963v10q-101 9 -164 84t-63 164q0 62 32 119.5t89.5 93.5t128.5 36q73 0 136 -36.5t101.5 -111.5t38.5 -185q0 -105 -41 -208.5t-115 -203t-165 -190.5l-170 124q76 101 119 169.5t73 134.5z" />
<glyph unicode="&#x201a;" d="M346 -31v11q-101 9 -164 83t-63 164q0 62 32 120t89.5 94t128.5 36q73 0 136 -36.5t101.5 -111.5t38.5 -186q0 -155 -85 -301t-236 -301l-170 125q135 180 192 303z" />
<glyph unicode="&#x201c;" horiz-adv-x="1401" d="M1055 1042v-10q68 -7 120 -44.5t79.5 -91t27.5 -112.5q0 -64 -31.5 -121t-88.5 -92.5t-130 -35.5q-56 0 -106 22t-88.5 63.5t-60 104.5t-21.5 143q0 279 323 602l170 -127q-131 -163 -194 -301zM418 1042v-10q103 -11 165 -83.5t62 -164.5q0 -63 -30.5 -120.5t-87.5 -93 t-132 -35.5q-76 0 -139.5 38t-100 114.5t-36.5 180.5t43 207.5t114.5 200.5t165.5 194l170 -127q-48 -65 -77.5 -106t-59 -88.5t-57.5 -106.5z" />
<glyph unicode="&#x201d;" horiz-adv-x="1434" d="M346 963v10q-100 9 -163.5 84.5t-63.5 167.5q0 59 31.5 116.5t89 93t129.5 35.5q73 0 136 -36.5t101.5 -111.5t38.5 -185q0 -105 -41 -208.5t-115 -203t-165 -190.5l-170 124q76 101 119 169.5t73 134.5zM1016 963v10q-68 6 -120.5 42t-80 92t-27.5 118q0 69 35.5 126 t93 88t121.5 31q74 0 137 -37t101.5 -112.5t38.5 -183.5q0 -60 -16 -125t-54 -142t-99.5 -159t-154.5 -176l-170 124q131 159 195 304z" />
<glyph unicode="&#x201e;" horiz-adv-x="1401" d="M346 -31v11q-101 9 -164 83t-63 164q0 62 32 120t89.5 94t128.5 36q73 0 136 -36.5t101.5 -111.5t38.5 -186q0 -155 -85 -301t-236 -301l-170 125q135 180 192 303zM983 -31v11q-101 9 -164 83t-63 164q0 62 32 120t89.5 94t128.5 36q73 0 136 -36.5t101.5 -111.5 t38.5 -186q0 -155 -85 -301t-236 -301l-170 125q135 180 192 303z" />
<glyph unicode="&#x2020;" horiz-adv-x="1419" d="M518 -506v1288l-399 -24v311l399 -25l-24 426h434l-27 -426l399 25v-311l-399 24v-1288h-383z" />
<glyph unicode="&#x2022;" horiz-adv-x="883" d="M119 684q0 60 22.5 116.5t66 103.5t103.5 74.5t131 27.5q95 0 168.5 -46.5t113.5 -121t40 -154.5t-40 -155.5t-113.5 -122t-168.5 -46.5q-92 0 -166 46t-115.5 121t-41.5 157z" />
<glyph unicode="&#x2026;" horiz-adv-x="2150" d="M96 240q0 75 37.5 135.5t98 93.5t126.5 33q116 0 189.5 -80t73.5 -182q0 -66 -33.5 -127t-93.5 -98.5t-136 -37.5q-75 0 -135 37.5t-93.5 98.5t-33.5 127zM813 240q0 75 37.5 135.5t98 93.5t126.5 33q116 0 189 -79.5t73 -182.5q0 -66 -33 -127t-93 -98.5t-136 -37.5 q-66 0 -126.5 33t-98 93.5t-37.5 136.5zM1530 240q0 102 73.5 182t188.5 80q102 0 182 -73.5t80 -188.5q0 -66 -33 -127t-93 -98.5t-136 -37.5q-113 0 -187.5 81t-74.5 182z" />
<glyph unicode="&#x202f;" horiz-adv-x="394" />
<glyph unicode="&#x2030;" horiz-adv-x="3256" d="M696 -336l-225 137l1020 1735l225 -137zM119 1073q0 148 88.5 275t337.5 127q173 0 266.5 -68t124.5 -158t31 -176q0 -89 -30.5 -178.5t-124.5 -156t-267 -66.5q-248 0 -337 125t-89 276zM543 1286q-32 0 -56 -21.5t-24 -56.5v-270q0 -32 24 -55t56 -23q35 0 57.5 23.5 t22.5 54.5v270q0 34 -23 56t-57 22zM1300 295q0 148 90 274.5t336 126.5q173 0 267 -68t124.5 -157.5t30.5 -175.5q0 -89 -30.5 -178.5t-124.5 -156t-267 -66.5q-247 0 -336.5 125t-89.5 276zM1724 508q-32 0 -55.5 -22t-23.5 -56v-270q0 -31 23.5 -54.5t55.5 -23.5 q34 0 57 23t23 55v270q0 35 -23.5 56.5t-56.5 21.5zM2290 295q0 148 89 274.5t337 126.5q171 0 265.5 -68t125.5 -157t31 -176q0 -90 -31 -179t-125.5 -155.5t-265.5 -66.5q-248 0 -337 125t-89 276zM2714 508q-32 0 -56 -21.5t-24 -56.5v-270q0 -32 24 -55t56 -23 t55.5 23.5t23.5 54.5v270q0 34 -23.5 56t-55.5 22z" />
<glyph unicode="&#x2039;" horiz-adv-x="991" d="M119 627l407 583l275 -80l-293 -528l221 -553l-258 -49z" />
<glyph unicode="&#x203a;" horiz-adv-x="991" d="M872 627l-350 -627l-258 49l219 553l-293 528l277 80z" />
<glyph unicode="&#x205f;" horiz-adv-x="492" />
<glyph unicode="&#x2122;" horiz-adv-x="2101" d="M274 666v151h41q45 0 45 31v416h-41q-24 0 -31 -14.5t-14 -67.5l-2 -25h-153v277h745v-277h-153v17q0 90 -45 90h-43v-416q0 -31 45 -31h41v-151h-435zM965 1434h385l137 -301l108 301h387v-152h-26q-45 0 -45 -31v-403q0 -31 45 -31h26v-151h-376v151h12q12 0 21.5 10.5 t9.5 20.5v258h-15l-133 -371h-110l-170 371h-15v-258q0 -31 47 -31h9v-151h-297v151q71 0 71 31v403q0 31 -71 31v152z" />
<glyph unicode="&#x2219;" d="M119 692q0 66 33.5 127.5t93.5 99t137 37.5q78 0 137.5 -37.5t92 -98t32.5 -128.5q0 -78 -37.5 -137.5t-97.5 -92t-127 -32.5q-115 0 -189.5 80.5t-74.5 181.5z" />
<glyph unicode="&#x25fc;" horiz-adv-x="1085" d="M0 1085h1085v-1085h-1085v1085z" />
</font>
</defs>
</svg>
